<?xml version="1.0" encoding="UTF-8"?>
<svg id="BG" xmlns="http://www.w3.org/2000/svg" version="1.1" viewBox="0 0 1080 1080">
  <!-- Generator: Adobe Illustrator 29.0.1, SVG Export Plug-In . SVG Version: 2.1.0 Build 192)  -->
  <defs>
    <style>
      .st0 {
        fill: #cf8a3f;
      }

      .st1 {
        fill: #2e4a71;
      }
    </style>
  </defs>
  <path class="st0" d="M193.59041,876.83954v-94.7867l119.75625-14.7976v-425.38094l-120.68249-1.38658v-89.70071l282.5076-47.1604v563.62863l119.75623,14.7976v94.7867H193.59041Z"/>
  <path class="st1" d="M753.14802,594.15242c29.72551-19.14139,53.7633-43.09219,72.0024-71.95632,21.41992-33.90469,32.13543-70.58252,32.13543-110.03909,0-42.84534-10.63787-79.91146-31.90246-111.20382-21.27014-31.28128-51.48657-55.40224-90.62697-72.3629-39.1515-16.94403-85.38567-25.4299-138.71361-25.4299h-85.08477v124.3819h85.08477c32.05774,0,56.71671,8.71329,73.9824,26.12318,17.26014,17.41545,25.89026,40.45489,25.89026,69.12386,0,27.74273-8.48034,48.94078-25.42992,63.57753-16.95513,14.64229-41.14821,21.96345-72.59027,21.96345h-86.93727v124.54722l96.56289,1.19174,83.77445,242.76988h196.04039v-94.32636l-63.80492-16.18418-70.38285-172.17632.00005.00011Z"/>
</svg>
