<?xml version="1.0" encoding="UTF-8"?>
<svg id="Layer_1" data-name="Layer 1" xmlns="http://www.w3.org/2000/svg" xmlns:xlink="http://www.w3.org/1999/xlink" viewBox="0 0 160 160">
  <defs>
    <linearGradient id="linear-gradient" x1="95.85" y1="45.12" x2="114.65" y2="31.96" gradientUnits="userSpaceOnUse">
      <stop offset="0" stop-color="#e6c68d"/>
      <stop offset=".37" stop-color="#e6bf90"/>
      <stop offset=".64" stop-color="#edcfac"/>
      <stop offset="1" stop-color="#f7e3cf"/>
    </linearGradient>
  </defs>
  <path d="M36.74,139.38c5.75-.31,10.14-7.42,11.91-11.91l33.13-87.88c.31-.73.73-1.05,1.15-1.05.52,0,.94.42,1.25,1.15l28.95,89.66c1.36,4.28,3.45,9.41,10.14,10.03.42,0,.63.21.63.63s-.21.73-.52.73h-37.52c-.42,0-.63-.31-.63-.73,0-.31.21-.63.63-.63,5.64-.63,8.99-3.34,6.69-10.66l-6.48-20.17-28.01.52-7.11,18.91c-1.88,5.02-.52,10.76,8.57,11.39.31,0,.73.1.73.73,0,.42-.42.63-.73.63h-22.78c-.21,0-.63-.1-.63-.63s.31-.73.63-.73ZM59.62,104.89l25.71,1.67-12.23-37.83-13.48,36.16Z" fill="#e6bf90"/>
  <path d="M106.08,19.93l2.52,12.17c.33,1.59,1.49,2.89,3.03,3.4l6.87,2.26c.76.25.76,1.33,0,1.58l-6.87,2.26c-1.54.51-2.7,1.8-3.03,3.4l-2.52,12.17c-.18.88-1.45.88-1.63,0l-2.52-12.16c-.33-1.59-1.49-2.89-3.03-3.4l-6.89-2.26c-.76-.25-.76-1.33,0-1.58l6.89-2.26c1.55-.51,2.7-1.8,3.03-3.4l2.52-12.16c.18-.88,1.45-.88,1.63,0Z" fill="url(#linear-gradient)"/>
</svg>
