<?xml version="1.0" encoding="UTF-8"?>
<svg id="Layer_1" data-name="Layer 1" xmlns="http://www.w3.org/2000/svg" viewBox="0 0 1080 737.06">
  <defs>
    <style>
      .cls-1 {
        fill: none;
      }

      .cls-1, .cls-2, .cls-3 {
        stroke-width: 0px;
      }

      .cls-2 {
        fill: #241f4a;
      }

      .cls-3 {
        fill: #f5b21d;
      }
    </style>
  </defs>
  <rect class="cls-1" x="0" width="1080" height="737.06"/>
  <g>
    <g>
      <path class="cls-2" d="M263.05,458.88c3.38,0,8.41.23,12.17,2.78,2.93,1.95,5.48,5.78,5.48,11.11,0,7.66-5.03,13.29-12.62,13.82l15.92,22.38h-6.76l-15.25-21.93h-1.43v21.93h-5.56v-50.09h8.04ZM260.57,482.09h3.53c6.91,0,11.04-3.3,11.04-9.16,0-2.78-.83-5.56-3.98-7.36-2.25-1.28-4.81-1.43-7.21-1.43h-3.38v17.95Z"/>
      <polygon class="cls-2" points="331.47 464.14 311.04 464.14 311.04 479.01 330.87 479.01 330.87 484.26 311.04 484.26 311.04 503.72 331.47 503.72 331.47 508.97 305.48 508.97 305.48 458.88 331.47 458.88 331.47 464.14"/>
      <path class="cls-2" d="M392.75,469.92c-1.58-1.58-3.98-3.46-6.53-4.66-2.63-1.2-5.71-1.95-8.64-1.95-11.57,0-20.13,9.31-20.13,20.88,0,13.59,11.04,20.43,20.2,20.43,3.38,0,6.68-.98,9.31-2.33,2.85-1.43,4.88-3.3,5.78-4.21v6.91c-5.56,3.98-11.34,4.88-15.09,4.88-14.87,0-25.91-11.26-25.91-25.76s11.19-26.06,26.21-26.06c3,0,8.79.38,14.79,4.96v6.91Z"/>
      <path class="cls-2" d="M423.77,458.88c3.38,0,8.41.23,12.17,2.78,2.93,1.95,5.48,5.78,5.48,11.11,0,7.66-5.03,13.29-12.62,13.82l15.92,22.38h-6.76l-15.25-21.93h-1.43v21.93h-5.56v-50.09h8.04ZM421.29,482.09h3.53c6.91,0,11.04-3.3,11.04-9.16,0-2.78-.83-5.56-3.98-7.36-2.25-1.28-4.81-1.43-7.21-1.43h-3.38v17.95Z"/>
      <path class="cls-2" d="M471.76,489.6c0,4.21,0,8.79,3.98,12.17,2.03,1.73,5.48,2.85,8.26,2.85s6.23-1.13,8.26-2.85c3.98-3.38,3.98-7.96,3.98-12.17v-30.72h5.56v32.22c0,4.21-.45,8.26-3.15,12.02-3,4.13-8.26,6.76-14.64,6.76s-11.64-2.63-14.64-6.76c-2.7-3.75-3.15-7.81-3.15-12.02v-32.22h5.56v30.72Z"/>
      <rect class="cls-2" x="527.48" y="458.88" width="5.56" height="50.09"/>
      <polygon class="cls-2" points="571.04 464.14 571.04 508.97 565.48 508.97 565.48 464.14 553.32 464.14 553.32 458.88 583.21 458.88 583.21 464.14 571.04 464.14"/>
      <polygon class="cls-2" points="601.76 508.97 610.09 456.1 629.32 498.38 648.92 456.03 656.73 508.97 651.02 508.97 646.29 474.13 629.24 511.07 612.42 474.13 607.46 508.97 601.76 508.97"/>
      <polygon class="cls-2" points="707.05 464.14 686.62 464.14 686.62 479.01 706.45 479.01 706.45 484.26 686.62 484.26 686.62 503.72 707.05 503.72 707.05 508.97 681.06 508.97 681.06 458.88 707.05 458.88 707.05 464.14"/>
      <polygon class="cls-2" points="730.03 508.97 730.03 456.78 769.08 497.71 769.08 458.88 774.64 458.88 774.64 511.23 735.59 470.3 735.59 508.97 730.03 508.97"/>
      <polygon class="cls-2" points="812.64 464.14 812.64 508.97 807.08 508.97 807.08 464.14 794.92 464.14 794.92 458.88 824.81 458.88 824.81 464.14 812.64 464.14"/>
    </g>
    <g>
      <path class="cls-2" d="M805.9,242.29c-15.69-15.08-34.16-18.47-52.02-18.47h-84.95v167.82l-25.16-167.82h-53.25l-44.02,109.58-41.55-109.58h-171.13l-78.8,205.31h56.33l13.85-34.48h74.48l12.62,34.48h58.18l17.54-118.2,47.4,118.2h21.24l49.56-118.2,15.08,118.2h100.88v-68.03h33.55c16.01,0,35.09-2.15,51.1-17.85,16-15.7,18.16-34.78,18.16-51.09,0-17.24-3.08-34.48-19.09-49.87ZM339.96,354.02l22.47-66.48,23.09,66.48h-45.56ZM762.49,311.55c-6.46,5.85-16.93,6.46-22.47,6.46h-17.85v-51.1h18.16c6.77,0,16.62.93,22.77,7.4,5.55,5.53,6.16,12.92,6.16,18.46,0,4.93-.3,13.24-6.77,18.78Z"/>
      <polygon class="cls-3" points="385.13 223.82 415.3 308.33 396.68 308.33 453.41 429.13 432.51 340.08 465.25 340.08 436.87 223.82 385.13 223.82"/>
    </g>
  </g>
</svg>