<?xml version="1.0" encoding="UTF-8"?>
<svg id="Layer_1" data-name="Layer 1" xmlns="http://www.w3.org/2000/svg" version="1.1" viewBox="0 0 1080 1080">
  <defs>
    <style>
      .cls-1 {
        fill: #fdb815;
        stroke-width: 0px;
      }
    </style>
  </defs>
  <g id="Icon">
    <g>
      <path class="cls-1" d="M493.09739,797.47424c9.35979-27.25122,14.03906-57.10125,14.03906-89.56218v-239.19405h-72.78722l-73.32912,176.97339h91.32042v62.22067h-219.3379v179.12459h121.6142c38.78318,0,69.24028-8.10561,91.30785-24.32956,22.08014-16.22434,37.80018-37.95556,47.17254-65.23285h.00016Z"/>
      <polygon class="cls-1" points="539.65391 214.5757 460.13052 406.49734 619.39494 406.49734 539.65391 214.5757"/>
      <polygon class="cls-1" points="797.95729 406.49734 797.95729 468.71801 713.75714 468.71801 783.49378 645.6914 846.99737 645.6914 846.99737 131.28317 580.78952 131.28317 689.23868 406.49734 797.95729 406.49734"/>
      <path class="cls-1" d="M627.94903,707.91214v-62.22067h90.82923l-73.53074-176.97339h-73.88641v244.22263c0,42.48008-7.35565,81.61194-22.08014,117.40861-14.7113,35.79635-37.29581,64.5603-67.72778,86.29152-26.56187,18.97123-59.61636,29.65602-99.15563,32.07597h277.37833c103.39946,0,187.22149-83.82163,187.22149-187.22125v-53.58336h-219.04834v-.00008Z"/>
      <path class="cls-1" d="M296.30443,645.6914l69.56344-176.97339h-90.76909v-62.22067h115.22632l108.18001-275.21417h-78.28083c-103.39962,0-187.22164,83.82163-187.22164,187.22125v327.18705h63.3018v-.00008Z"/>
    </g>
  </g>
</svg>