<?xml version="1.0" encoding="UTF-8"?>
<svg id="Layer_1" data-name="Layer 1" xmlns="http://www.w3.org/2000/svg" viewBox="0 0 1080 1080">
  <defs>
    <style>
      .cls-1 {
        fill: none;
      }

      .cls-1, .cls-2, .cls-3 {
        stroke-width: 0px;
      }

      .cls-2 {
        fill: #183441;
      }

      .cls-3 {
        fill: #90aa9c;
      }
    </style>
  </defs>
  <rect class="cls-1" width="1080" height="1080"/>
  <g>
    <g>
      <path class="cls-2" d="M520.33,353.56l4.1,10.65c-18.85,50.81-36.88,101.63-54.91,152.44-.82,3.28-2.46,5.74-3.28,9.02-9.01,24.59-18.03,49.99-27.05,74.58l-.82,1.64c-3.28,10.65-5.74,18.85-5.74,25.41,0,12.29,8.19,18.03,28.68,25.41v1.64h-73.76v-1.64c18.03-11.48,27.04-18.85,39.34-48.36l4.92-13.11c7.37-20.49,15.57-41.8,22.95-62.29,1.64-4.1,3.28-8.19,4.92-12.3,20.49-54.91,40.16-109,60.65-163.09Z"/>
      <path class="cls-3" d="M662.94,516.65h-245.05l-6.56,57.37h2.46c7.38-21.31,21.31-38.52,40.98-45.08,4.1-1.64,7.38-2.46,11.48-3.28,2.46-.82,5.74-.82,9.01-.82h39.34v196.69c0,30.32-4.1,32.78-30.32,41.8v2.46h99.16v-2.46c-27.04-9.01-31.14-11.48-31.14-41.8v-196.69h52.45c7.38,0,13.93.82,19.67,3.28,20.49,6.56,34.43,24.59,42.62,45.9h1.64l-5.74-57.37Z"/>
      <path class="cls-2" d="M660.48,622.38c-12.29-31.14-23.77-63.11-36.06-94.25-1.64-4.1-2.46-7.37-4.1-11.48-25.41-67.21-50.81-135.23-77.04-202.43-13.93,9.83-22.95,15.57-33.6,18.85l10.65,20.49,4.1,10.65c18.85,50.81,37.7,101.63,57.37,152.44.82,2.46,1.64,5.74,2.46,8.2,11.48,29.5,22.13,59.83,33.61,89.33,2.46,7.38,4.92,13.12,4.92,17.21,0,9.01-7.38,13.93-29.51,21.31v1.64h99.17v-1.64c-22.95-8.2-26.23-13.93-31.96-30.32Z"/>
    </g>
    <path class="cls-2" d="M540,958.93c-143.78,0-260.72-116.93-260.72-260.72v-316.42c0-143.78,116.93-260.72,260.72-260.72s260.72,116.93,260.72,260.72v316.42c0,143.78-116.93,260.72-260.72,260.72ZM540,129.23c-139.26,0-252.55,113.29-252.55,252.55v316.42c0,139.26,113.29,252.55,252.55,252.55s252.55-113.29,252.55-252.55v-316.42c0-139.26-113.29-252.55-252.55-252.55Z"/>
  </g>
</svg>