<?xml version="1.0" encoding="UTF-8"?>
<svg id="Layer_1" data-name="Layer 1" xmlns="http://www.w3.org/2000/svg" version="1.1" viewBox="0 0 1080 1080">
  <defs>
    <style>
      .cls-1 {
        fill: #ffd866;
      }

      .cls-1, .cls-2 {
        stroke-width: 0px;
      }

      .cls-2 {
        fill: #0f66d0;
      }
    </style>
  </defs>
  <path class="cls-2" d="M341.48132,340.20898v84.81409c0,1.52832,1.23895,2.76727,2.76727,2.76727h96.77225c41.27103,0,72.66476,7.564,94.18124,22.69202,21.51379,15.12802,32.27472,37.08499,32.27472,65.87091,0,16.59814-3.82117,30.76953-11.45544,42.51953-6.40894,9.85931-15.34723,17.54492-26.81812,23.05988-2.21979,1.06726-2.15051,4.28168.17181,5.10229,13.3399,4.71405,23.83655,12.21777,31.4917,22.50775,8.95844,12.04462,13.43903,26.73212,13.43903,44.06262,0,31.43158-9.95026,55.04242-29.85071,70.82715-7.54907,5.98932-16.48822,10.8548-26.80292,14.60791-2.90234,1.05603-2.14606,5.34979.94244,5.34979h117.76904c1.52832,0,2.76727-1.23895,2.76727-2.76727v-304.03934c0-1.52832,1.23895-2.76727,2.76727-2.76727h88.26843c1.52832,0,2.76727-1.23895,2.76727-2.76727v-91.84015c0-1.52832-1.23895-2.76727-2.76727-2.76727h-385.91797c-1.52832,0-2.76727,1.23895-2.76727,2.76727l-.00006.00009Z"/>
  <path class="cls-1" d="M471.12402,486.71521l-33.88586,89.82221c-.8628,2.28706.83153,4.73162,3.27593,4.7351,10.73712.01532,20.74345.06531,30.74817-.0401,5.75565-.06067,7.39142,1.82495,4.08881,6.98285-31.00098,48.41705-56.87634,78.0459-87.88275,126.45941-.0396.06183-.08352.12089-.13258.17731-.8846,1.01727-2.57649.18259-2.44734-1.15931,1.58548-16.4733,15.5429-78.12225,17.02444-85.66827.50388-2.56641-1.44586-4.95837-4.06125-4.95837l-31.51575-.00006c-3.22626,0-5.63876-2.97052-4.99057-6.13104,1.62497-7.92316,21.87115-97.99762,27.9545-126.2153,2.55075-11.8317,4.18561-13.26953,16.36633-13.35983,19.74841-.14642,39.49866-.0939,59.24786-.03845l.43528.002c4.81126.02205,7.92646,5.08849,5.77478,9.39186h0Z"/>
  <path class="cls-2" d="M782.85095,802.44067h-485.70193c-9.91779,0-17.98715-8.06934-17.98715-17.98718v-488.90698c0-9.91779,8.06937-17.98715,17.98715-17.98715h485.70193c9.91779,0,17.98718,8.06937,17.98718,17.98715v488.90698c0,9.91779-8.06934,17.98718-17.98718,17.98718ZM309.60168,772.00085h460.79663v-464.00168h-460.79663v464.00168Z"/>
</svg>