<?xml version="1.0" encoding="UTF-8"?>
<svg id="Layer_1" data-name="Layer 1" xmlns="http://www.w3.org/2000/svg" xmlns:xlink="http://www.w3.org/1999/xlink" viewBox="0 0 149.59 149.59">
  <defs>
    <style>
      .cls-1 {
        fill: url(#linear-gradient);
        stroke-width: 0px;
      }
    </style>
    <linearGradient id="linear-gradient" x1="15.75" y1="74.8" x2="133.84" y2="74.8" gradientUnits="userSpaceOnUse">
      <stop offset="0" stop-color="#2064af"/>
      <stop offset="1" stop-color="#20afca"/>
    </linearGradient>
  </defs>
  <path class="cls-1" d="M53.43,78.45c1.19.64,2.51.97,3.84.97.87,0,1.75-.14,2.59-.43,3.98-1.35,6.25-5.84,5.17-10.23-2.04-8.29,2.93-16.84,11.09-19.06,8.16-2.22,16.72,2.63,19.08,10.83,1.25,4.34,5.45,7.06,9.56,6.21h0c2.19-.46,4.12-1.82,5.29-3.74,1.17-1.92,1.51-4.27.93-6.45-3.6-13.47-15.14-22.91-28.86-23.74.49-1.91.52-3.98-.02-6.02-.81-3.04-2.75-5.58-5.45-7.15-2.7-1.57-5.85-1.98-8.85-1.16-6.21,1.69-9.9,8.18-8.22,14.45.54,2,1.57,3.78,2.97,5.22-11.44,7.7-16.71,21.73-13.12,35.19.58,2.18,2.04,4.04,4.01,5.1ZM61.86,32.32c-.65-2.42-.32-4.95.92-7.13s3.24-3.73,5.64-4.39c2.4-.66,4.9-.33,7.05.92,2.15,1.25,3.69,3.27,4.34,5.7.65,2.42.32,4.95-.92,7.13-1.24,2.18-3.24,3.73-5.64,4.39-.81.22-1.62.33-2.42.33-4.1,0-7.86-2.76-8.98-6.95ZM64.46,39.74l.45-.29.49.32c2.47,1.75,5.56,2.3,8.47,1.5,2.92-.79,5.31-2.84,6.58-5.62l.22-.48h.58c13.02.46,24.04,9.32,27.43,22.02.41,1.54.17,3.21-.66,4.57-.84,1.38-2.17,2.32-3.75,2.65-2.9.61-5.9-1.38-6.8-4.53-2.72-9.44-12.57-15.04-21.97-12.47-9.4,2.56-15.13,12.41-12.78,21.95.78,3.18-.81,6.42-3.62,7.38-.61.21-1.23.31-1.85.31-.93,0-1.86-.23-2.71-.69-1.39-.75-2.43-2.07-2.84-3.61-3.39-12.7,1.73-25.96,12.74-32.99ZM32.87,103.14c1.45,1.48,2.25,3.43,2.25,5.52,0,2.08-.81,4.04-2.27,5.51-1.46,1.47-3.39,2.27-5.44,2.27h-.02c-2.06,0-4-.82-5.45-2.3-1.45-1.48-2.25-3.43-2.25-5.52,0-2.08.81-4.04,2.27-5.51,1.46-1.47,3.39-2.27,5.44-2.27h.02c2.06,0,4,.82,5.45,2.3h0ZM63.38,31.91c-.54-2.01-.27-4.11.76-5.92s2.69-3.1,4.68-3.64c.67-.18,1.35-.27,2.02-.27,1.33,0,2.65.35,3.83,1.04,1.79,1.04,3.07,2.72,3.6,4.73.54,2.01.27,4.11-.76,5.92-1.03,1.81-2.69,3.1-4.68,3.64-4.11,1.12-8.35-1.35-9.46-5.5ZM72.41,96.86c.87.79,1.37,1.86,1.4,3.04.03,1.18-.4,2.28-1.23,3.11-8.61,8.67-21.57,10.71-32.38,5.15.17-3.34-1.06-6.58-3.4-8.96-2.34-2.38-5.55-3.63-8.85-3.48-5.46-10.95-3.38-24.04,5.23-32.71.82-.83,1.92-1.28,3.08-1.23,1.16.04,2.23.55,3,1.43,1.42,1.63,1.22,4.29-.46,6.05-7.35,7.69-7.26,20.12.21,27.71,7.47,7.58,19.76,7.73,27.41.34,1.75-1.7,4.38-1.89,5.99-.44ZM53.24,72.31c-3.17-11.86,1.51-24.24,11.66-30.96,2.79,1.81,6.18,2.34,9.39,1.46,3.21-.88,5.87-3.06,7.38-6.04,12.11.65,22.32,8.96,25.49,20.83.3,1.13.13,2.31-.48,3.31-.61,1-1.58,1.68-2.72,1.92-2.11.44-4.29-1.06-4.97-3.41-2.96-10.27-13.68-16.36-23.9-13.57-10.22,2.79-16.45,13.5-13.9,23.88.59,2.38-.55,4.78-2.59,5.48-1.11.38-2.28.28-3.31-.28-1.03-.56-1.76-1.49-2.06-2.62ZM129.89,97.49c.08,2.08-.64,4.07-2.03,5.6-1.4,1.53-3.3,2.42-5.36,2.51-4.29.18-7.85-3.17-8.03-7.47-.18-4.3,3.14-7.94,7.39-8.11.11,0,.22,0,.33,0,1.94,0,3.78.73,5.22,2.06,1.52,1.41,2.4,3.33,2.48,5.41ZM113.14,106.98c-3.29,11.8-13.57,20.03-25.72,20.54-1.18.04-2.26-.38-3.09-1.2-.83-.82-1.28-1.92-1.25-3.1.04-2.18,1.97-4,4.39-4.15,10.56-.65,18.8-9.88,18.36-20.57-.44-10.69-9.4-19.18-19.98-18.97-2.44.09-4.49-1.6-4.71-3.76-.12-1.18.23-2.31,1-3.2.76-.89,1.82-1.4,2.98-1.45,12.15-.49,23.05,6.83,27.31,18.32-2.36,2.35-3.62,5.58-3.48,8.93.14,3.36,1.66,6.47,4.2,8.61ZM130.08,89.14c-2.29-2.13-5.26-3.25-8.38-3.1-2.09.09-4.03.74-5.69,1.79-4.91-12.98-17.27-21.29-31.07-20.69-2.23.09-4.34,1.12-5.81,2.83-1.46,1.7-2.17,3.97-1.94,6.22.43,4.22,4.31,7.43,8.73,7.35,8.42-.16,15.6,6.6,15.95,15.14.35,8.53-6.23,15.9-14.66,16.42-4.46.27-8.02,3.81-8.1,8.06-.04,2.26.85,4.46,2.44,6.04,1.52,1.5,3.57,2.34,5.69,2.34.11,0,.22,0,.33,0,13.78-.58,25.43-9.87,29.27-23.21,1.63.85,3.45,1.31,5.32,1.31.16,0,.33,0,.49-.01,3.11-.13,5.99-1.48,8.1-3.79,2.11-2.32,3.2-5.33,3.07-8.47-.13-3.15-1.46-6.05-3.75-8.19ZM114.79,106.91c-3.33,12.73-14.3,21.65-27.31,22.2-.08,0-.16,0-.23,0-1.5,0-2.95-.6-4.03-1.66-1.15-1.13-1.76-2.65-1.73-4.28h0c.06-3,2.64-5.51,5.87-5.71,9.71-.6,17.28-9.08,16.88-18.91-.4-9.7-8.42-17.44-17.98-17.44-.13,0-.26,0-.39,0-.05,0-.1,0-.15,0-3.18,0-5.87-2.26-6.17-5.2-.16-1.62.32-3.18,1.37-4.41,1.03-1.21,2.53-1.94,4.11-2,13.02-.56,24.67,7.43,29.03,19.83l.18.5-.41.41c-2.24,2.05-3.45,4.98-3.33,8.03.12,3.05,1.57,5.87,3.97,7.73l.42.32-.11.57ZM129.02,104.17c-1.68,1.85-3.97,2.92-6.45,3.02-.13,0-.26,0-.39,0-2.34,0-4.56-.87-6.28-2.48-1.83-1.7-2.89-4.02-2.99-6.52-.1-2.51.77-4.9,2.45-6.75,1.68-1.85,3.97-2.92,6.45-3.02,2.49-.11,4.85.78,6.68,2.47,1.83,1.7,2.89,4.02,2.99,6.52.1,2.51-.77,4.9-2.45,6.75ZM63.68,94.42c-6.1,5.91-15.92,5.78-21.88-.27-5.96-6.05-6.04-15.97-.17-22.11,3.1-3.25,3.36-8.29.59-11.47-1.48-1.7-3.61-2.71-5.84-2.78-2.22-.08-4.41.8-6,2.39-9.77,9.83-12.15,24.62-6.06,37.1-1.93.53-3.7,1.55-5.16,3.01-4.56,4.59-4.57,12.07-.04,16.67,2.28,2.31,5.27,3.47,8.27,3.47s5.96-1.14,8.23-3.43c1.45-1.46,2.47-3.25,3-5.19,4.56,2.31,9.45,3.45,14.29,3.45,8.21,0,16.29-3.23,22.44-9.42,1.58-1.59,2.45-3.8,2.39-6.05s-1.06-4.41-2.73-5.91c-3.14-2.82-8.12-2.58-11.35.54ZM33.96,115.3c-1.75,1.77-4.08,2.74-6.56,2.74h-.02c-2.48,0-4.81-.99-6.57-2.77-1.75-1.78-2.71-4.14-2.71-6.65s.98-4.87,2.74-6.64c1.75-1.77,4.08-2.74,6.56-2.74h.02c2.48,0,4.81.99,6.57,2.77,1.75,1.78,2.71,4.14,2.71,6.65,0,2.51-.98,4.87-2.74,6.64ZM73.7,104.14c-5.69,5.73-13.17,8.72-20.77,8.72-4.72,0-9.48-1.15-13.89-3.51l-.45-.24v-.57c.29-3.06-.77-6.05-2.9-8.21-2.13-2.16-5.07-3.24-8.09-2.98l-.52.05-.3-.49c-6.06-11.67-3.93-25.74,5.29-35.02,1.12-1.13,2.69-1.73,4.25-1.69,1.6.05,3.07.75,4.13,1.97,1.97,2.25,1.74,5.86-.51,8.22-6.76,7.07-6.67,18.5.2,25.47,6.86,6.97,18.17,7.11,25.2.31,2.34-2.27,5.91-2.48,8.13-.48,1.2,1.08,1.89,2.57,1.93,4.19.04,1.6-.57,3.16-1.69,4.29Z"/>
</svg>