<?xml version="1.0" encoding="UTF-8"?>
<svg id="Layer_1" xmlns="http://www.w3.org/2000/svg" version="1.1" viewBox="0 0 1080 1080">
  <!-- Generator: Adobe Illustrator 29.0.1, SVG Export Plug-In . SVG Version: 2.1.0 Build 192)  -->
  <defs>
    <style>
      .st0 {
        fill: #038c3e;
        fill-rule: evenodd;
      }

      .st1 {
        fill: #034159;
      }
    </style>
  </defs>
  <path class="st0" d="M484.3366,680.16831c31.72476,13.69877,70.66506,18.71739,103.08061,4.32693l25.96249,10.08861v108.38736c4.80448.11229,9.60867.21981,14.41285.32374v-154.77704l13.69847-15.87298c34.61127,7.19523,71.40513-6.50354,98.77668-26.67956,33.13263-24.50295,51.85031-56.22622,54.05081-97.32013-40.37773-9.34675-75.68816-1.43474-109.56265,23.78498-28.1379,20.89519-49.74837,53.33403-52.61666,89.38423l-4.35172,5.76048v-51.18252l-11.52216-18.04959c9.37153-34.59276,0-72.05381-19.45895-101.65064l.00448.00358c-23.81276-34.59156-54.0744-54.05081-95.16861-58.37774-12.26402,38.96628-4.32723,74.9902,18.71709,109.58176,18.76786,28.82989,49.03189,53.33403,83.62316,58.37774l9.39602,14.41554-.02479,98.75726-20.17632-7.96218c-10.80419-34.59037-38.89281-61.26993-70.64057-75.65919-34.5608-15.1574-77.80921-15.87418-111.70849.71678,10.80389,39.63527,35.33193,66.31483,73.50827,83.62256Z"/>
  <path class="st1" d="M564.66117,762.03059c-122.44497,0-222.0693-99.58525-222.0693-222.03046,0-122.40465,99.62433-222.03071,222.0693-222.03071,82.2204,0,154.11007,44.98645,192.48619,111.59819l97.71849-65.72338c-59.65308-97.90675-167.43118-163.41565-290.20468-163.41565-187.25353,0-339.61014,152.31679-339.61014,339.57155s152.35661,339.5713,339.61014,339.5713c122.82891,0,230.65252-65.56555,290.2878-163.54503l-97.71849-65.72264c-38.35435,66.69288-110.28755,111.72683-192.56931,111.72683Z"/>
</svg>