<?xml version="1.0" encoding="UTF-8"?>
<svg id="Layer_1" data-name="Layer 1" xmlns="http://www.w3.org/2000/svg" viewBox="0 0 425 425">
  <defs>
    <style>
      .cls-1 {
        fill: #74e1ee;
      }

      .cls-1, .cls-2, .cls-3 {
        stroke-width: 0px;
      }

      .cls-2 {
        fill: #f2796e;
      }

      .cls-3 {
        fill: #005f81;
      }
    </style>
  </defs>
  <path class="cls-3" d="M244.08,120.99c7.45,53.97-33.92,88.3-51.03,135.13-4.22,11.07-7.27,22.79-9.33,34.52-.8,3.99-1.27,8.01-1.98,12.04-.04.3-.32.5-.62.45-.23-.04-.4-.23-.43-.45-4.27-29.26,3.09-58.69,17.37-84.3,13.58-24.89,31.67-46.76,39.8-73.86,2.38-7.68,3.94-15.56,5.17-23.52.04-.3.32-.51.62-.45.23.04.4.23.43.45h0Z"/>
  <g>
    <g>
      <path class="cls-2" d="M193.48,215.83c4.49-8.22,9.51-16.21,14.37-23.93,10.14-16.1,19.72-31.31,24.99-48.88.61-1.97,1.18-4.01,1.71-6.13v-8.52c0-2.03-1.64-3.66-3.66-3.66h-36.98c-2.05,0-3.71,1.66-3.71,3.71v72.08c0,.97-1.43,1.07-1.56.1l-.31-2.23c-.69-5-4.96-8.71-10.01-8.71h-49.06c-2.21,0-4.01,1.79-4.01,4.01v36.74c0,2,1.61,3.61,3.61,3.61h55.88c2.48-6.12,5.39-12.19,8.74-18.19Z"/>
      <path class="cls-1" d="M295.83,189.66h-60.5c-.26,0-.48-.14-.63-.34-4.31,8.31-9.12,16.35-13.89,24.32-8.43,14.08-17.14,28.65-22.85,44.28-3.17,8.32-5.76,17.3-7.76,26.8v10.75c0,1.93,1.57,3.5,3.5,3.5h37.23c2.01,0,3.63-1.63,3.63-3.64v-71.87c0-.98,1.44-1.07,1.56-.08.34,3.03,1.79,5.69,3.92,7.6,2.13,1.9,4.93,3.05,7.99,3.05h47.71c2.08,0,3.77-1.69,3.77-3.77v-36.92c0-2.03-1.64-3.67-3.68-3.67Z"/>
    </g>
    <g>
      <path class="cls-2" d="M223.98,93.23c.53-3.3,2.55-6.16,6.25-7.06,1.23-.29,2.53-.33,3.79-.13,2.34.38,4.31,1.45,5.74,3.24.06.05.15.2.12.38-.05.28-1.27,1.09-1.57,1.04-.11-.02-.21-.08-.25-.11l-.12-.11c-1.13-1.29-2.49-2-4.27-2.29-4.06-.65-6.84,1.84-7.42,5.43s1.28,6.75,5.36,7.41c1.35.22,2.65.11,3.87-.38.14-.07.29-.13.41-.22.14-.07.29-.15.46-.24.07-.03.17-.06.25-.05.05-.01.09,0,.16,0,.07.01.11.02.15.05.09.01.17.07.22.15.07.1.28.31.45.54l.25.35c.04.05.07.1.08.17.01.05.07.14.05.23-.02.15-.13.27-.24.36-1.85,1.24-4.22,1.6-6.48,1.23-5.54-.89-8.04-5.27-7.29-9.99Z"/>
      <path class="cls-2" d="M242,105.24c-.35-.12-.45-.45-.37-.68l5.04-15.08c.08-.23.33-.45.71-.32l1.15.38c.35.12.42.42.33.67l-2.14,6.4,7.51,2.51,2.14-6.4c.08-.25.33-.44.71-.32l1.17.39c.33.11.43.45.35.67l-5.04,15.08c-.08.23-.38.43-.71.32l-1.15-.38c-.38-.12-.46-.43-.38-.68l2.24-6.7-7.51-2.51-2.24,6.7c-.06.17-.31.45-.67.33l-1.15-.38Z"/>
      <path class="cls-2" d="M256.73,109.86s.03-.06.09-.13l.12-.09c.1-.1.23-.2.41-.36.33-.3.82-.71,1.42-1.2,1.16-.98,2.74-2.29,4.33-3.62,3.18-2.66,6.49-5.4,6.97-5.79.16-.16.41-.26.72-.1l1.11.58c.31.16.37.44.35.66-.05.62-.42,4.89-.79,9.02-.19,2.08-.37,4.13-.51,5.64-.07.76-.13,1.39-.17,1.85l-.05.52c-.01.07-.01.12-.02.14,0,.1-.03.16-.03.16-.15.29-.48.25-.65.16l-1.11-.58c-.2-.1-.36-.36-.32-.57l.49-5.31-6.26-3.27-4.08,3.43c-.22.18-.49.14-.67.05l-1.07-.56c-.18-.09-.42-.34-.26-.63ZM269.27,108.61l.67-6.98-5.41,4.5,4.74,2.48Z"/>
      <path class="cls-2" d="M283.06,106.22c.14-.19.46-.32.77-.08l1.23.92c.11.08.18.19.2.32.02.04.03.11.02.15,0,.03,0,.06,0,.11l-.81,15.37,7.55-10.06c.14-.19.47-.3.77-.08l.97.73c.32.24.23.61.12.75l-9.54,12.72c-.14.19-.49.29-.77.08l-1.21-.91c-.12-.09-.27-.37-.26-.53l.8-15.43-7.54,10.05c-.14.19-.47.3-.76.09l-.95-.71c-.3-.22-.29-.57-.14-.76l9.54-12.72Z"/>
      <path class="cls-2" d="M293.42,124.4c3.54-3.33,8.52-3.62,12.39.5,1.63,1.73,2.5,3.72,2.54,6.01,0,.06,0,.25-.14.37-.18.17-1.71.07-1.89-.12-.08-.08-.12-.16-.15-.25-.01-.05,0-.09,0-.16-.1-1.68-.73-3.06-1.95-4.36-2.85-3.03-6.54-2.82-9.22-.31-2.57,2.41-3.27,6-.5,8.95,2.41,2.57,5.04,2.48,7.56.78l-3.77-4.01c-.26-.27-.18-.58,0-.76l.75-.71c.18-.17.52-.22.76.04l4.99,5.31c.27.29.14.63,0,.76-3.35,3.15-7.96,4.28-11.89.09-3.84-4.09-2.88-8.95.52-12.14Z"/>
      <path class="cls-2" d="M301.33,146.33c-.18-.25-.16-.59.07-.76l12.87-9.39c.16-.12.5-.2.75.13l.71.98c.22.3.09.61-.1.76l-12.87,9.39c-.18.13-.53.14-.72-.13l-.71-.98Z"/>
      <path class="cls-2" d="M319.87,144.04c.21-.12.55-.1.74.24l.75,1.34c.06.12.09.25.06.37,0,.05-.01.11-.04.15,0,.03-.02.06-.04.1l-6.96,13.73,10.98-6.14c.21-.12.56-.08.74.24l.59,1.06c.19.35-.04.65-.19.74l-13.88,7.77c-.21.12-.57.07-.74-.24l-.74-1.33c-.08-.13-.1-.45-.03-.59l6.98-13.79-10.96,6.13c-.21.12-.56.08-.73-.22l-.58-1.04c-.18-.33-.03-.64.18-.76l13.88-7.77Z"/>
      <path class="cls-2" d="M321.97,164.85c4.59-1.6,9.25.15,11.12,5.49.78,2.24.77,4.41-.12,6.52-.03.06-.11.22-.27.28-.23.08-1.59-.63-1.68-.88-.04-.1-.04-.19-.03-.29,0-.05.04-.08.07-.14.59-1.58.58-3.09-.01-4.77-1.37-3.92-4.83-5.23-8.3-4.02-3.32,1.16-5.42,4.15-4.09,7.97,1.16,3.32,3.6,4.31,6.58,3.78l-1.81-5.19c-.12-.35.07-.61.32-.69l.98-.34c.23-.08.56.01.68.35l2.4,6.87c.13.37-.13.63-.32.69-4.34,1.51-9.01.68-10.91-4.74-1.85-5.3,1-9.34,5.41-10.88Z"/>
      <path class="cls-2" d="M321.66,195.37c-.04-.31.15-.59.43-.63l15.81-1.92c.2-.02.54.07.59.48l.15,1.2c.04.37-.22.58-.46.61l-14.21,1.73.68,5.61c.04.35-.22.58-.46.61l-1.07.13c-.24.03-.53-.14-.57-.46l-.89-7.36Z"/>
      <path class="cls-2" d="M322.77,207.91c0-.31.2-.58.49-.59l15.92-.48c.2,0,.53.12.54.53l.04,1.21c.01.37-.27.56-.51.57l-15.92.48c-.22,0-.51-.18-.52-.51l-.04-1.21Z"/>
      <path class="cls-2" d="M322.96,219.73c.63-.21,4.69-1.54,8.62-2.81,3.87-1.23,7.77-2.5,7.95-2.49.39.03.43.43.41.61l-.11,1.36c-.02.24-.17.47-.42.54l-13.81,4.26,12.94,6.4c.21.11.35.32.33.6l-.11,1.4c-.01.13-.11.54-.5.51-.15-.01-3.82-1.9-7.42-3.74-3.69-1.89-7.48-3.85-8.07-4.14-.21-.13-.36-.43-.34-.69l.1-1.23c.03-.31.22-.51.45-.58Z"/>
      <path class="cls-2" d="M320.96,232.57c.08-.36.41-.49.64-.44l15.51,3.51c.24.05.48.29.39.67l-1.9,8.41c-.09.39-.38.48-.64.42l-1.01-.23c-.26-.06-.48-.27-.39-.65l1.52-6.71-5.06-1.15-1.4,6.18c-.08.36-.38.5-.64.44l-1.01-.23c-.26-.06-.47-.31-.39-.67l1.4-6.18-5.34-1.21-1.57,6.93c-.08.34-.4.47-.64.42l-1.05-.24c-.24-.05-.45-.3-.38-.63l1.96-8.65Z"/>
      <path class="cls-2" d="M320.55,248.5c-1.42.71-2.59,2.1-3.18,3.64-.68,1.79-.39,3.5,1.25,4.13.76.29,1.45-.04,2.12-.63.33-.32.63-.68.93-1.08.29-.38.56-.78.81-1.13,1.67-2.45,3.85-4.3,6.79-3.18,2.84,1.08,3.38,4.42,2.31,7.22-.62,1.62-1.75,3.24-3.32,4.01-.15.08-.28.11-.46.04-.06-.02-.12-.05-.16-.08l-.14-.12c-.09-.08-.19-.19-.29-.3-.19-.19-.36-.42-.46-.51-.11-.14-.2-.29-.09-.57.02-.04.04-.1.09-.18.05-.12.11-.1.23-.17.06-.03.14-.06.23-.12.09-.06.17-.12.25-.16.94-.68,1.68-1.62,2.1-2.73.62-1.62.37-3.56-1.11-4.12-.39-.15-.78-.23-1.19-.15-1.12.21-2.26,1.8-3.06,2.88-1.58,2.22-3.47,4.4-6.39,3.28-3.12-1.19-3.72-4.01-2.5-7.22.7-1.83,2.19-3.95,4.04-4.72.14-.06.29-.08.43-.02.14.05,1.21,1.21,1.05,1.62-.03.08-.09.18-.16.24l-.02.06-.12.07Z"/>
      <path class="cls-2" d="M321.31,274.13c.2-.32.52-.32.72-.19l.89.57c.15.09.36.41.15.75l-6.37,10c-.19.3-.54.31-.74.18l-.87-.56c-.22-.14-.34-.45-.15-.75l2.57-4.03-12.12-7.72c-.24-.15-.29-.5-.12-.75l.65-1.02c.18-.28.52-.32.72-.19l12.12,7.72,2.55-4.01Z"/>
      <path class="cls-2" d="M299.66,279.78c.25-.28.59-.25.77-.09l12.02,10.41c.18.16.28.48.02.78l-.79.92c-.25.28-.54.23-.75.05l-5.11-4.42-5.19,5.99,5.11,4.42c.2.17.28.48.03.78l-.81.93c-.23.27-.58.23-.76.07l-12.03-10.41c-.18-.16-.25-.51-.02-.78l.79-.92c.26-.3.57-.26.77-.09l5.34,4.62,5.19-5.99-5.34-4.62c-.13-.12-.3-.46-.05-.75l.79-.91Z"/>
      <path class="cls-2" d="M287.56,292.87c.28-.24.62-.16.78.03l10.36,12.07c.16.18.21.51-.09.77l-3.57,3.07c-2.59,2.22-5.45,2.33-7.51-.07-1.69-1.97-1.7-4.31.05-6.42-.75-.23-2.27-.66-3.75-1.1-.96-.28-1.89-.55-2.59-.76l-.85-.25c-.11-.05-.2-.06-.26-.1-.12-.04-.2-.09-.21-.11-.11-.13-.1-.32-.05-.42.04-.12.12-.19.17-.24l1.2-1.03c.17-.14.39-.19.59-.13l7.57,2.4,1.42-1.22-4.24-4.94c-.16-.18-.21-.51.07-.76l.92-.79ZM289.92,302.91c-1.59,1.36-1.87,2.85-.64,4.29,1.23,1.44,2.78,1.41,4.36.05l2.27-1.95-3.72-4.34-2.27,1.95Z"/>
      <path class="cls-2" d="M281.78,308.83c2.52,4.13,1.8,9.08-3.02,12.03-4.81,2.93-9.56,1.32-12.08-2.81-2.52-4.13-1.8-9.08,3.02-12.03s9.56-1.32,12.08,2.81ZM268.68,316.81c1.9,3.12,5.38,4.35,8.93,2.18,3.55-2.17,4.1-5.83,2.19-8.96-1.9-3.12-5.41-4.3-8.96-2.14-3.55,2.17-4.06,5.8-2.16,8.92Z"/>
      <path class="cls-2" d="M264.45,327.74c.06.14.08.51-.31.66l-1.17.46c-.31.12-.6-.07-.68-.28l-3.56-9.07c-.92-2.35-2.68-4-5.4-2.94-2.72,1.07-2.78,3.45-1.87,5.79l3.56,9.07c.09.23,0,.56-.34.7l-1.13.44c-.35.14-.64-.06-.73-.28l-3.56-9.07c-1.29-3.3-.98-7.03,3.25-8.69,4.28-1.68,7.06.83,8.36,4.16l3.55,9.05Z"/>
      <path class="cls-2" d="M244.6,326.64c.98,4.76-1.37,9.15-6.91,10.3-2.33.48-4.48.18-6.45-.99-.05-.03-.21-.14-.24-.31-.05-.24.84-1.5,1.1-1.55.11-.02.2-.02.29,0,.05.01.08.05.13.08,1.49.79,2.99.98,4.73.62,4.07-.84,5.83-4.1,5.08-7.7-.71-3.45-3.4-5.93-7.36-5.11-3.45.71-4.75,3-4.62,6.03l5.39-1.11c.37-.08.59.15.65.41l.21,1.01c.05.24-.09.56-.43.63l-7.13,1.47c-.39.08-.6-.21-.64-.41-.93-4.5.52-9.02,6.14-10.18,5.49-1.13,9.13,2.23,10.07,6.8Z"/>
      <path class="cls-2" d="M221.92,322.03c.37-.01.58.27.59.51l.54,15.9c0,.24-.16.53-.55.55l-1.21.04c-.37.01-.54-.25-.55-.51l-.23-6.75-7.92.27.23,6.75c0,.26-.16.53-.55.55l-1.23.04c-.35.01-.56-.27-.57-.51l-.54-15.9c0-.24.2-.54.55-.55l1.21-.04c.4-.01.58.24.59.51l.24,7.06,7.92-.27-.24-7.06c0-.18.14-.53.51-.55l1.21-.04Z"/>
      <path class="cls-2" d="M196.68,321.26c.37.07.51.38.47.62l-2.83,15.65c-.05.3-.33.48-.68.41l-5.09-.92c-3.33-.6-5.25-2.76-4.68-5.88.57-3.16,3.09-4.49,6.45-3.89l3.38.61,1.16-6.41c.04-.24.27-.49.64-.42l1.19.22ZM189.89,329.34c-2.04-.37-3.39.35-3.73,2.21-.34,1.86.66,3.05,2.71,3.42l3.42.62,1.02-5.63-3.42-.62Z"/>
      <path class="cls-2" d="M177.36,333.98c-.05.15-.27.44-.66.31l-1.19-.4c-.31-.11-.41-.44-.34-.65l3.14-9.23c.82-2.4.54-4.79-2.23-5.73-2.77-.94-4.35.84-5.16,3.21l-3.14,9.23c-.08.23-.36.44-.71.32l-1.15-.39c-.35-.12-.45-.46-.37-.68l3.14-9.23c1.14-3.35,3.79-6.01,8.1-4.54,4.35,1.48,4.86,5.19,3.7,8.58l-3.14,9.21Z"/>
      <path class="cls-2" d="M166.5,312.43c.33.17.38.51.27.73l-7.17,14.2c-.11.22-.4.39-.75.21l-4.2-2.12c-3.04-1.54-4.24-4.14-2.82-6.97,1.17-2.32,3.33-3.22,5.95-2.42-.08-.78-.27-2.35-.43-3.89-.11-.99-.22-1.96-.29-2.69l-.09-.89c0-.12-.02-.21,0-.28,0-.13.01-.22.02-.24.08-.16.26-.22.38-.21.13,0,.23.04.28.07l1.41.71c.2.1.32.29.34.49l.69,7.91,1.67.84,2.94-5.81c.11-.22.4-.39.73-.22l1.08.55ZM158.14,318.46c-1.87-.94-3.35-.63-4.21,1.06-.85,1.69-.24,3.11,1.63,4.05l2.67,1.35,2.58-5.11-2.67-1.35Z"/>
      <path class="cls-2" d="M153.25,305.24c.31.21.31.56.17.76l-9.02,13.09c-.17.25-.5.3-.79.1l-4.26-2.93c-2.79-1.92-3.64-4.67-1.85-7.28,1.82-2.64,4.67-2.82,7.48-.89l2.83,1.95,3.69-5.36c.14-.2.44-.33.75-.12l1,.69ZM143.75,309.8c-1.7-1.17-3.24-1.08-4.31.48-1.07,1.56-.66,3.05,1.06,4.23l2.86,1.97,3.25-4.71-2.86-1.97Z"/>
      <path class="cls-2" d="M136.51,303.83c-3.35,3.49-8.31,4.07-12.39.16-4.07-3.89-3.72-8.9-.38-12.39,3.35-3.5,8.31-4.07,12.39-.16,4.08,3.91,3.72,8.9.38,12.39ZM125.44,293.23c-2.53,2.64-2.82,6.31.18,9.19,3,2.88,6.68,2.47,9.22-.18,2.53-2.64,2.77-6.33-.23-9.2-3-2.88-6.65-2.44-9.17.2Z"/>
      <path class="cls-2" d="M123.78,283.87c.16-1.58-.4-3.31-1.39-4.63-1.15-1.53-2.75-2.2-4.16-1.14-.65.49-.74,1.25-.6,2.13.09.45.23.9.42,1.36.17.45.36.88.53,1.28,1.19,2.71,1.59,5.55-.92,7.44-2.43,1.83-5.54.51-7.34-1.88-1.04-1.39-1.81-3.21-1.63-4.94,0-.17.06-.29.21-.41.05-.04.11-.08.15-.09l.18-.05c.11-.03.26-.06.4-.08.26-.06.55-.08.68-.12.18-.02.35-.01.53.23.03.04.07.09.1.17.08.11.03.14.02.29,0,.06-.02.15-.02.26,0,.11.02.21,0,.3.07,1.16.48,2.28,1.19,3.23,1.04,1.39,2.81,2.2,4.08,1.25.33-.25.61-.54.76-.93.42-1.06-.32-2.87-.82-4.12-1.04-2.52-1.88-5.28.62-7.16,2.67-2.01,5.38-1.02,7.44,1.73,1.18,1.56,2.18,3.95,1.85,5.93-.02.15-.09.29-.21.38s-1.67.38-1.94.03c-.05-.07-.1-.17-.12-.27l-.04-.05v-.14Z"/>
      <path class="cls-2" d="M117.95,269.29c.18.33.03.64-.18.76l-13.86,7.8c-.21.12-.55.11-.74-.24l-4.23-7.51c-.19-.35-.04-.61.19-.74l.9-.51c.23-.13.54-.12.73.22l3.38,6,4.52-2.55-3.11-5.52c-.18-.33-.05-.63.18-.76l.9-.51c.23-.13.56-.09.74.24l3.11,5.52,4.77-2.69-3.49-6.19c-.17-.31-.02-.62.19-.74l.94-.53c.21-.12.54-.08.7.21l4.35,7.72Z"/>
      <path class="cls-2" d="M111.38,256.76c.14.35-.05.64-.27.73l-14.73,5.99c-.29.12-.58-.03-.71-.35l-3.24-7.96c-.15-.37.04-.61.28-.71l.96-.39c.31-.12.57,0,.7.33l2.58,6.36,4.81-1.96-2.39-5.87c-.14-.35.03-.63.27-.73l.96-.39c.24-.1.56-.02.7.33l2.39,5.87,6.54-2.66c.22-.09.56-.02.7.31l.45,1.1Z"/>
      <path class="cls-2" d="M90.73,248.53c-.15.04-.52.02-.62-.39l-.3-1.22c-.08-.32.15-.58.36-.63l9.46-2.35c2.46-.61,4.32-2.14,3.62-4.98-.7-2.84-3.06-3.21-5.49-2.6l-9.46,2.35c-.24.06-.56-.06-.65-.43l-.29-1.17c-.09-.36.14-.62.38-.68l9.46-2.35c3.44-.85,7.1-.06,8.2,4.36,1.11,4.46-1.74,6.89-5.21,7.75l-9.44,2.34Z"/>
      <path class="cls-2" d="M102.87,226.61c.03.31-.16.59-.44.62l-15.84,1.68c-.2.02-.54-.08-.58-.49l-.13-1.2c-.04-.37.23-.58.47-.6l14.24-1.51-.6-5.62c-.04-.35.23-.58.47-.6l1.07-.11c.24-.03.52.14.56.47l.78,7.37Z"/>
      <path class="cls-2" d="M101.96,206.72c-.03.37-.33.55-.57.53l-15.85-1.32c-.31-.03-.51-.29-.48-.64l.43-5.15c.28-3.38,2.25-5.49,5.4-5.22,3.2.27,4.77,2.65,4.48,6.05l-.29,3.42,6.49.54c.24.02.51.22.48.59l-.1,1.21ZM93.28,200.74c.17-2.06-.67-3.35-2.56-3.5s-2.97.94-3.15,3.03l-.29,3.46,5.7.48.29-3.46Z"/>
      <path class="cls-2" d="M103.68,191.9c-.06.3-.33.51-.61.46l-15.59-3.28c-.19-.04-.49-.24-.4-.65l.25-1.18c.08-.37.39-.48.63-.43l14.02,2.95,1.16-5.53c.07-.34.39-.48.63-.43l1.06.22c.24.05.45.3.39.62l-1.53,7.25Z"/>
      <path class="cls-2" d="M105.43,181.36s-.06-.02-.14-.07l-.1-.11c-.11-.09-.23-.2-.41-.36-.34-.29-.82-.72-1.37-1.25-1.13-1.02-2.64-2.41-4.16-3.81-3.06-2.79-6.21-5.72-6.66-6.14-.18-.14-.31-.37-.19-.7l.43-1.18c.12-.33.39-.42.6-.44.62-.03,4.91-.23,9.04-.41,2.09-.08,4.14-.18,5.66-.24.76-.03,1.4-.05,1.85-.08l.52-.02c.07,0,.12,0,.14,0,.1-.01.16.01.16.01.31.11.31.44.24.63l-.43,1.18c-.08.21-.31.4-.52.4l-5.32.22-2.41,6.64,3.94,3.58c.21.19.2.47.14.66l-.41,1.14c-.07.19-.28.46-.59.35ZM102.54,169.1l-7,.27,5.18,4.76,1.82-5.02Z"/>
      <path class="cls-2" d="M104.79,160.56c-2.92-1.63-4.92-4.5-4.49-8.3.15-1.25.56-2.49,1.18-3.6,1.16-2.08,2.84-3.55,5.01-4.28.07-.04.24-.07.39.02.25.14.59,1.56.44,1.83-.05.1-.15.17-.19.2l-.14.07c-1.6.62-2.73,1.65-3.61,3.22-2,3.59-.61,7.06,2.56,8.83s6.78,1.11,8.8-2.5c.66-1.19,1.02-2.46.97-3.77-.01-.16-.03-.32-.07-.47-.01-.16-.04-.33-.07-.51,0-.08,0-.18.04-.25,0-.05.02-.09.06-.14s.05-.1.09-.12c.04-.08.12-.13.21-.16.12-.03.39-.16.66-.24l.42-.12c.06-.02.12-.03.19-.02.05,0,.16-.01.24.03.13.08.21.22.26.35.53,2.16.05,4.51-1.06,6.51-2.73,4.9-7.71,5.75-11.88,3.42Z"/>
      <path class="cls-2" d="M122.33,147.73c-.23.3-.58.28-.77.13l-12.62-9.67c-.19-.15-.31-.46-.07-.78l5.25-6.84c.24-.31.54-.28.75-.12l.82.63c.21.16.33.44.08.76l-4.19,5.46,4.12,3.16,3.85-5.03c.23-.3.56-.29.77-.13l.82.63c.21.16.3.48.07.77l-3.85,5.03,4.35,3.33,4.32-5.64c.21-.28.56-.26.75-.12l.86.66c.19.15.28.46.08.73l-5.39,7.04Z"/>
      <path class="cls-2" d="M119.45,125.19c-.21-.22-.28-.62.06-.93l.87-.81c.06-.06.18-.17.3-.22.14-.07.35-.14.56-.04l13.33,5.8-4.94-13.71c-.1-.24-.03-.48.16-.66l1.12-1.05c.27-.26.61-.18.78,0l10.89,11.59c.17.18.2.54-.06.78l-.88.83c-.26.24-.61.18-.78,0l-7.7-8.2,4.26,11.64c.07.24.01.5-.19.69l-.91.86c-.19.18-.49.25-.72.16l-11.31-4.95,7.67,8.16c.17.18.22.52-.04.76l-.79.74c-.37.35-.74.21-.95-.01l-10.72-11.42Z"/>
      <path class="cls-2" d="M147.68,122.22c-.31.21-.63.08-.77-.12l-8.87-13.21c-.14-.2-.15-.54.18-.76l7.16-4.81c.33-.22.6-.09.75.13l.58.86c.15.22.17.52-.16.75l-5.72,3.84,2.9,4.31,5.26-3.53c.31-.21.62-.1.77.12l.58.86c.15.22.13.55-.18.76l-5.26,3.53,3.05,4.55,5.9-3.96c.29-.2.62-.07.75.13l.6.9c.14.2.12.53-.16.71l-7.36,4.94Z"/>
      <path class="cls-2" d="M152.02,99.99c-.1-.22-.07-.55.29-.72l1.39-.66c.12-.06.26-.07.37-.03.05,0,.11.02.15.05.03.01.06.02.1.05l13.22,7.88-5.38-11.37c-.1-.22-.05-.56.29-.72l1.09-.52c.36-.17.65.08.72.24l6.81,14.38c.1.22.03.57-.29.72l-1.37.65c-.14.07-.45.07-.59-.01l-13.28-7.9,5.38,11.35c.1.22.05.56-.27.71l-1.07.51c-.34.16-.64-.01-.74-.23l-6.81-14.38Z"/>
      <path class="cls-2" d="M170.74,93.45c-.36.11-.6-.1-.67-.33l-.3-1.01c-.05-.17,0-.55.38-.66l11.36-3.4c.34-.1.61.12.68.35l.3.99c.08.25-.04.56-.38.66l-4.57,1.37,4.12,13.76c.08.27-.11.56-.4.65l-1.16.35c-.32.09-.6-.09-.67-.33l-4.12-13.76-4.55,1.36Z"/>
      <path class="cls-2" d="M190.34,99.77c1.32.88,3.11,1.21,4.74.95,1.89-.3,3.23-1.4,2.96-3.13-.13-.8-.75-1.24-1.6-1.53-.44-.13-.9-.21-1.4-.27-.48-.06-.95-.1-1.38-.14-2.95-.23-5.64-1.21-6.13-4.32-.47-3,2.16-5.12,5.11-5.59,1.72-.27,3.68-.09,5.13.89.15.09.23.19.26.38,0,.07.02.13,0,.18l-.04.18c-.03.12-.07.26-.12.4-.07.26-.19.52-.21.66-.06.17-.15.31-.46.36-.04,0-.11.02-.2,0-.13.02-.14-.04-.26-.12-.05-.04-.12-.09-.22-.14-.1-.05-.19-.08-.27-.14-1.05-.48-2.24-.65-3.41-.47-1.72.27-3.27,1.45-3.02,3.01.07.41.19.79.46,1.11.74.86,2.68,1.07,4.02,1.22,2.71.27,5.54.83,6.02,3.91.52,3.3-1.63,5.22-5.02,5.75-1.93.3-4.51.06-6.1-1.16-.13-.09-.21-.21-.24-.36-.02-.15.45-1.65.89-1.72.09-.01.2,0,.29.02h.07s.12.06.12.06Z"/>
      <path class="cls-2" d="M212.14,94.01c.01-.92.68-1.53,1.65-1.51.95.02,1.59.64,1.58,1.57-.01.92-.68,1.53-1.63,1.51-.83-.01-1.62-.73-1.6-1.57Z"/>
    </g>
  </g>
</svg>