<?xml version="1.0" encoding="UTF-8"?>
<svg id="Layer_1" data-name="Layer 1" xmlns="http://www.w3.org/2000/svg" viewBox="0 0 560 560">
  <defs>
    <style>
      .cls-1 {
        fill: #fff;
      }

      .cls-2 {
        fill: #4c5758;
      }

      .cls-3 {
        fill: #3bb49d;
      }
    </style>
  </defs>
  <polygon class="cls-3" points="236.55 469.09 280 512.53 323.45 469.09 236.55 469.09"/>
  <path class="cls-2" d="M447.97,344.57l64.57-64.57L280,47.47,47.47,280l64.57,64.57h335.93ZM361.7,271.51c-1.12-1.32-2.81-2.57-5.06-3.75-2.25-1.18-5.06-2.43-8.43-3.75-3.37-1.36-6.52-3-9.44-4.94-2.93-1.94-5.3-4.36-7.12-7.26-1.82-2.9-2.73-6.51-2.73-10.81s1.21-8.03,3.63-11.19c2.42-3.16,5.62-5.59,9.59-7.29,3.97-1.7,8.22-2.56,12.76-2.56,4.77,0,8.93.52,12.49,1.57s6.43,2.15,8.6,3.31,3.49,1.94,3.95,2.32l-8.37,14.01c-.62-.47-1.68-1.14-3.17-2.03-1.49-.89-3.26-1.69-5.29-2.38-2.03-.7-4.15-1.05-6.36-1.05-2.98,0-5.4.53-7.24,1.6-1.84,1.07-2.76,2.64-2.76,4.74,0,1.43.49,2.72,1.48,3.87s2.5,2.23,4.53,3.25c2.03,1.03,4.62,2.14,7.76,3.34,2.87,1.05,5.56,2.29,8.08,3.72s4.74,3.13,6.65,5.08c1.92,1.96,3.44,4.21,4.56,6.77,1.12,2.56,1.68,5.46,1.68,8.72,0,3.87-.79,7.24-2.38,10.08-1.59,2.85-3.75,5.2-6.48,7.06-2.73,1.86-5.83,3.25-9.3,4.16-3.47.91-7.06,1.37-10.78,1.37-5.27,0-9.99-.6-14.15-1.8s-7.52-2.5-10.08-3.89c-2.56-1.4-4.09-2.33-4.59-2.79l8.66-14.59c.47.35,1.37.91,2.7,1.69,1.34.78,2.97,1.58,4.91,2.41,1.94.83,4,1.54,6.19,2.12,2.19.58,4.35.87,6.48.87,3.56,0,6.24-.69,8.02-2.06,1.78-1.37,2.67-3.19,2.67-5.43,0-1.67-.56-3.16-1.69-4.47ZM249.72,221.35h53.93v15.23h-18.25v61.48h-17.38v-61.48h-18.31v-15.23ZM226.65,221.35v15.23h-31.67v15.63h31.38v14.76h-31.38v15.86h31.67v15.23h-48.99v-76.71h48.99Z"/>
  <polygon class="cls-3" points="130.48 363.01 165.07 397.6 394.93 397.6 429.52 363.01 130.48 363.01"/>
  <polygon class="cls-3" points="376.48 416.05 183.52 416.05 218.11 450.64 341.89 450.64 376.48 416.05"/>
  <g>
    <path class="cls-2" d="M280,47.47L47.47,280l64.57,64.57h335.93l64.57-64.57L280,47.47Z"/>
    <polygon class="cls-1" points="268.03 298.06 285.4 298.06 285.4 236.58 303.65 236.58 303.65 221.35 249.72 221.35 249.72 236.58 268.03 236.58 268.03 298.06"/>
    <path class="cls-1" d="M360.72,281.42c-1.78,1.38-4.46,2.06-8.02,2.06-2.13,0-4.29-.29-6.48-.87-2.19-.58-4.25-1.29-6.19-2.12-1.94-.83-3.57-1.64-4.91-2.41-1.34-.77-2.24-1.34-2.7-1.69l-8.66,14.59c.5.47,2.03,1.4,4.59,2.79,2.56,1.39,5.92,2.69,10.08,3.89s8.88,1.8,14.15,1.8c3.72,0,7.31-.46,10.78-1.37,3.47-.91,6.57-2.3,9.3-4.16,2.73-1.86,4.89-4.21,6.48-7.06,1.59-2.85,2.38-6.21,2.38-10.08,0-3.26-.56-6.16-1.68-8.72-1.12-2.56-2.64-4.81-4.56-6.77-1.92-1.96-4.14-3.65-6.65-5.08s-5.21-2.67-8.08-3.72c-3.14-1.2-5.72-2.31-7.76-3.34-2.03-1.03-3.55-2.11-4.53-3.25s-1.48-2.43-1.48-3.87c0-2.09.92-3.67,2.76-4.74,1.84-1.07,4.25-1.6,7.24-1.6,2.21,0,4.33.35,6.36,1.05,2.03.7,3.8,1.49,5.29,2.38,1.49.89,2.55,1.57,3.17,2.03l8.37-14.01c-.47-.39-1.78-1.16-3.95-2.32s-5.04-2.27-8.6-3.31-7.73-1.57-12.49-1.57-8.79.85-12.76,2.56c-3.97,1.71-7.17,4.14-9.59,7.29-2.42,3.16-3.63,6.89-3.63,11.19s.91,7.9,2.73,10.81c1.82,2.91,4.19,5.33,7.12,7.26,2.93,1.94,6.07,3.58,9.44,4.94,3.37,1.32,6.18,2.57,8.43,3.75,2.25,1.18,3.93,2.43,5.06,3.75,1.12,1.32,1.69,2.81,1.69,4.47,0,2.25-.89,4.06-2.67,5.43Z"/>
    <polygon class="cls-1" points="226.65 282.84 194.98 282.84 194.98 266.97 226.36 266.97 226.36 252.21 194.98 252.21 194.98 236.58 226.65 236.58 226.65 221.35 177.66 221.35 177.66 298.06 226.65 298.06 226.65 282.84"/>
    <path class="cls-1" d="M361.7,271.51c-1.12-1.32-2.81-2.57-5.06-3.75-2.25-1.18-5.06-2.43-8.43-3.75-3.37-1.36-6.52-3-9.44-4.94-2.93-1.94-5.3-4.36-7.12-7.26-1.82-2.9-2.73-6.51-2.73-10.81s1.21-8.03,3.63-11.19c2.42-3.16,5.62-5.59,9.59-7.29,3.97-1.7,8.22-2.56,12.76-2.56,4.77,0,8.93.52,12.49,1.57s6.43,2.15,8.6,3.31,3.49,1.94,3.95,2.32l-8.37,14.01c-.62-.47-1.68-1.14-3.17-2.03-1.49-.89-3.26-1.69-5.29-2.38-2.03-.7-4.15-1.05-6.36-1.05-2.98,0-5.4.53-7.24,1.6-1.84,1.07-2.76,2.64-2.76,4.74,0,1.43.49,2.72,1.48,3.87s2.5,2.23,4.53,3.25c2.03,1.03,4.62,2.14,7.76,3.34,2.87,1.05,5.56,2.29,8.08,3.72s4.74,3.13,6.65,5.08c1.92,1.96,3.44,4.21,4.56,6.77,1.12,2.56,1.68,5.46,1.68,8.72,0,3.87-.79,7.24-2.38,10.08-1.59,2.85-3.75,5.2-6.48,7.06-2.73,1.86-5.83,3.25-9.3,4.16-3.47.91-7.06,1.37-10.78,1.37-5.27,0-9.99-.6-14.15-1.8s-7.52-2.5-10.08-3.89c-2.56-1.4-4.09-2.33-4.59-2.79l8.66-14.59c.47.35,1.37.91,2.7,1.69,1.34.78,2.97,1.58,4.91,2.41,1.94.83,4,1.54,6.19,2.12,2.19.58,4.35.87,6.48.87,3.56,0,6.24-.69,8.02-2.06,1.78-1.37,2.67-3.19,2.67-5.43,0-1.67-.56-3.16-1.69-4.47ZM249.72,221.35h53.93v15.23h-18.25v61.48h-17.38v-61.48h-18.31v-15.23ZM177.66,221.35h48.99v15.23h-31.67v15.63h31.38v14.76h-31.38v15.86h31.67v15.23h-48.99v-76.71Z"/>
  </g>
</svg>