<?xml version="1.0" encoding="UTF-8"?>
<svg id="Layer_1" data-name="Layer 1" xmlns="http://www.w3.org/2000/svg" xmlns:xlink="http://www.w3.org/1999/xlink" viewBox="0 0 78.96 78.96">
  <defs>
    <style>
      .cls-1 {
        fill: url(#linear-gradient);
        stroke-width: 0px;
      }
    </style>
    <linearGradient id="linear-gradient" x1="12.06" y1="66.9" x2="66.9" y2="12.06" gradientUnits="userSpaceOnUse">
      <stop offset="0" stop-color="#005d4d"/>
      <stop offset="1" stop-color="#00d8ae"/>
    </linearGradient>
  </defs>
  <path class="cls-1" d="M12.06,26.15v-14.1h54.84v14.63c-.23-.1-.45-.21-.69-.29-1.45-.52-3.13-.78-5.03-.78-.89,0-1.73.07-2.54.2-.81.13-1.59.33-2.33.59-.74.26-1.45.61-2.11,1.03-.66.42-1.29.93-1.89,1.51-.49-.58-1.03-1.09-1.63-1.51-.59-.42-1.23-.77-1.92-1.03-.69-.26-1.43-.46-2.22-.59-.79-.13-1.63-.2-2.52-.2-.72,0-1.41.06-2.08.17-.67.11-1.31.29-1.94.54-.62.24-1.22.56-1.8.93s-1.12.83-1.63,1.36l-1.24-2.52h-5.91v9.73c-.16-.62-.34-1.23-.58-1.81-.71-1.72-1.7-3.2-2.97-4.44-1.27-1.23-2.77-2.2-4.49-2.9-1.72-.7-3.59-1.05-5.61-1.05-1.29,0-2.54.17-3.73.51ZM65.64,54.39v-16.11c0-1.02-.11-1.89-.32-2.63-.22-.73-.55-1.34-.99-1.82-.44-.48-.98-.84-1.63-1.07-.64-.24-1.38-.35-2.2-.35-.98,0-1.83.18-2.54.54-.72.36-1.31.87-1.78,1.54-.47.67-.82,1.45-1.03,2.35-.22.9-.32,1.89-.32,2.98v14.58h-7.15v-16.11c0-1.02-.11-1.89-.32-2.63-.22-.73-.55-1.34-.99-1.82-.44-.48-.99-.84-1.64-1.07-.65-.24-1.39-.35-2.22-.35s-1.6.12-2.32.35c-.72.24-1.35.64-1.89,1.2-.55.57-.98,1.32-1.29,2.28-.31.95-.47,2.14-.47,3.58v14.58h-7.09v-12.41H12.06v5.44c.55.32,1.17.6,1.86.81,1.05.32,2.29.48,3.7.48,1.92,0,3.79-.24,5.61-.73,1.82-.49,3.52-1.29,5.1-2.4v6.39c-1.53,1.06-3.27,1.83-5.24,2.32-1.97.49-4.05.74-6.23.74-1.72,0-3.32-.22-4.8-.65v12.54h54.84v-12.51h-1.26ZM22.12,35.07c-.36-.67-.83-1.24-1.41-1.71-.58-.47-1.28-.83-2.08-1.07-.8-.25-1.71-.37-2.73-.37-.96,0-1.84.15-2.63.44-.44.16-.84.35-1.21.57v4.39h10.77c-.11-.83-.35-1.58-.71-2.25Z"/>
</svg>