<?xml version="1.0" encoding="UTF-8"?>
<svg id="Layer_1" data-name="Layer 1" xmlns="http://www.w3.org/2000/svg" version="1.1" viewBox="0 0 1080 1080">
  <defs>
    <style>
      .cls-1 {
        fill: #5db56c;
      }

      .cls-1, .cls-2 {
        stroke-width: 0px;
      }

      .cls-2 {
        fill: #085f6a;
      }
    </style>
  </defs>
  <rect class="cls-1" x="247.26466" y="348.26496" width="272.9455" height="75.38888"/>
  <rect class="cls-1" x="247.26468" y="498.89105" width="256.66327" height="75.38888"/>
  <rect class="cls-1" x="247.26455" y="657.65973" width="276.20253" height="75.38888"/>
  <path class="cls-1" d="M943.87456,845.10409H136.12544V234.89591h569.33474c131.4623,0,238.41438,106.95208,238.41438,238.41438v371.79379ZM196.43654,784.79298h687.12691v-311.48269c0-98.20579-79.89749-178.10328-178.10328-178.10328H196.43654v489.58597Z"/>
  <path class="cls-2" d="M717.88495,574.28001c62.28711,0,112.95966-50.67255,112.95966-112.95966s-50.67255-112.95959-112.95966-112.95959h-146.21906v75.38885h146.21906c20.71722,0,37.57074,16.85358,37.57074,37.57074s-16.85352,37.5708-37.57074,37.5708h-163.02844v75.38885h54.60577l121.68958,158.76862h89.56256l-125.90338-158.76862h23.07391Z"/>
</svg>