<?xml version="1.0" encoding="UTF-8"?>
<svg id="Layer_1" data-name="Layer 1" xmlns="http://www.w3.org/2000/svg" viewBox="0 0 1184.19 1080">
  <defs>
    <style>
      .cls-1 {
        fill: #5d1b1e;
      }

      .cls-1, .cls-2 {
        stroke-width: 0px;
      }

      .cls-2 {
        fill: #fbf9ff;
      }
    </style>
  </defs>
  <rect class="cls-2" x="0" y="0" width="1184.19" height="1080" transform="translate(1184.19 1080) rotate(180)"/>
  <g>
    <path class="cls-1" d="M1041.08,225.9c0-3.54-2.87-6.41-6.41-6.41H149.53c-4.89,0-7.98,5.26-5.6,9.54l62.58,112.1c2.26,4.06,6.55,6.57,11.19,6.57h434.76c3.54,0,6.41,2.87,6.41,6.41v500c0,3.54,2.87,6.41,6.41,6.41h115.38c3.54,0,6.41-2.87,6.41-6.41v-500c0-3.54,2.87-6.41,6.41-6.41h241.18c3.54,0,6.41-2.87,6.41-6.41v-115.39Z"/>
    <path class="cls-1" d="M317.92,860.51h207.46c3.54,0,6.41-2.87,6.41-6.41v-115.38c0-3.54-2.87-6.41-6.41-6.41H249.74c-4.89,0-7.98,5.26-5.6,9.54l62.58,112.1c2.26,4.06,6.55,6.57,11.19,6.57Z"/>
    <path class="cls-1" d="M267.82,604.1h257.57c3.54,0,6.41-2.87,6.41-6.41v-115.39c0-3.54-2.87-6.41-6.41-6.41H199.64c-4.89,0-7.98,5.26-5.6,9.54l62.58,112.1c2.26,4.06,6.55,6.57,11.19,6.57Z"/>
  </g>
</svg>