<?xml version="1.0" encoding="UTF-8" standalone="no"?>
<svg
   id="Layer_1"
   data-name="Layer 1"
   viewBox="0 0 1402305.7 1166400"
   version="1.1"
   sodipodi:docname="EXCLUSIVE_TALENT_PTY_LTD.svg"
   width="1402305.6"
   height="1166400"
   xmlns:inkscape="http://www.inkscape.org/namespaces/inkscape"
   xmlns:sodipodi="http://sodipodi.sourceforge.net/DTD/sodipodi-0.dtd"
   xmlns="http://www.w3.org/2000/svg"
   xmlns:svg="http://www.w3.org/2000/svg">
  <sodipodi:namedview
     id="namedview3"
     pagecolor="#505050"
     bordercolor="#eeeeee"
     borderopacity="1"
     inkscape:showpageshadow="0"
     inkscape:pageopacity="0"
     inkscape:pagecheckerboard="0"
     inkscape:deskcolor="#505050" />
  <defs
     id="defs1">
    <style
       id="style1">
      .cls-1 {
        fill: #5d1b1e;
      }

      .cls-1, .cls-2 {
        stroke-width: 0px;
      }

      .cls-2 {
        fill: #fbf9ff;
      }
    </style>
  </defs>
  <g
     id="g3"
     transform="translate(-0.06938613)">
    <path
       class="cls-1"
       d="m 1041.08,225.9 c 0,-3.54 -2.87,-6.41 -6.41,-6.41 H 149.53 c -4.89,0 -7.98,5.26 -5.6,9.54 l 62.58,112.1 c 2.26,4.06 6.55,6.57 11.19,6.57 h 434.76 c 3.54,0 6.41,2.87 6.41,6.41 v 500 c 0,3.54 2.87,6.41 6.41,6.41 h 115.38 c 3.54,0 6.41,-2.87 6.41,-6.41 v -500 c 0,-3.54 2.87,-6.41 6.41,-6.41 h 241.18 c 3.54,0 6.41,-2.87 6.41,-6.41 V 225.9 Z"
       id="path1" />
    <path
       class="cls-1"
       d="m 317.92,860.51 h 207.46 c 3.54,0 6.41,-2.87 6.41,-6.41 V 738.72 c 0,-3.54 -2.87,-6.41 -6.41,-6.41 H 249.74 c -4.89,0 -7.98,5.26 -5.6,9.54 l 62.58,112.1 c 2.26,4.06 6.55,6.57 11.19,6.57 z"
       id="path2" />
    <path
       class="cls-1"
       d="m 267.82,604.1 h 257.57 c 3.54,0 6.41,-2.87 6.41,-6.41 V 482.3 c 0,-3.54 -2.87,-6.41 -6.41,-6.41 H 199.64 c -4.89,0 -7.98,5.26 -5.6,9.54 l 62.58,112.1 c 2.26,4.06 6.55,6.57 11.19,6.57 z"
       id="path3" />
  </g>
</svg>
