<?xml version="1.0" encoding="UTF-8"?>
<svg xmlns="http://www.w3.org/2000/svg" xmlns:xlink="http://www.w3.org/1999/xlink" version="1.1" viewBox="0 0 1179.10738 1080">
  <defs>
    <style>
      .cls-1 {
        fill: none;
      }

      .cls-2 {
        fill: url(#linear-gradient-4);
      }

      .cls-3 {
        fill: url(#linear-gradient-3);
      }

      .cls-4 {
        fill: url(#linear-gradient-2);
      }

      .cls-5 {
        fill: #c5d2fd;
      }

      .cls-6 {
        fill: url(#linear-gradient);
      }
    </style>
    <linearGradient id="linear-gradient" x1="508.22659" y1="905.66025" x2="508.22659" y2="222.11234" gradientUnits="userSpaceOnUse">
      <stop offset=".00115" stop-color="#515e8f"/>
      <stop offset="1" stop-color="#8ea6fc"/>
    </linearGradient>
    <linearGradient id="linear-gradient-2" x1="670.88106" y1="905.71177" x2="670.88106" y2="371.70772" xlink:href="#linear-gradient"/>
    <linearGradient id="linear-gradient-3" x1="345.57211" y1="847.48229" x2="345.57211" y2="280.49598" xlink:href="#linear-gradient"/>
    <linearGradient id="linear-gradient-4" x1="833.56089" y1="849.73549" x2="833.56089" y2="222.11269" xlink:href="#linear-gradient"/>
  </defs>
  <!-- Generator: Adobe Illustrator 28.7.1, SVG Export Plug-In . SVG Version: 1.2.0 Build 142)  -->
  <g>
    <g id="Layer_1">
      <g>
        <g>
          <polygon class="cls-6" points="573.70321 222.11234 573.70321 905.66025 442.74997 858.85156 442.74997 222.11234 573.70321 222.11234"/>
          <polygon class="cls-4" points="736.35768 420.36065 736.35768 860.64354 605.40444 905.71177 605.40444 371.70772 736.35768 420.36065"/>
          <polygon class="cls-3" points="411.04873 329.20017 411.04873 847.48229 280.09549 800.67235 280.09549 280.49598 411.04873 329.20017"/>
          <polygon class="cls-2" points="898.60218 804.76994 899.01189 222.11269 768.1099 222.11269 768.1099 359.41638 768.1099 639.96454 768.1099 849.73549 898.60218 804.76994"/>
        </g>
        <path class="cls-5" d="M720.01596,523.89676c.45921-.58626.91337-1.17696,1.36251-1.77254,32.77139-43.45604,47.92699-109.79758,46.7132-162.70791-1.08807-47.43012-.75484-92.33695-.08904-137.6615,44.76065,97.66471,73.29168,210.74343,50.24556,317.21673-8.50163,36.97608-26.63114,71.34021-50.13833,100.99309-4.86504,6.19665-9.9864,12.18824-15.31282,17.97603-5.3261,5.73527-10.806,11.31801-16.43937,16.64442-37.64219,35.69574-82.76137,62.42909-130.95324,82.45379-10.44778,4.30177-20.99777,8.29658-31.70124,11.98381-39.17854,13.67426-79.68837,23.25118-119.2767,29.85794-3.89228.66518-7.78426,1.28034-11.67654,1.94552-10.54999,1.74171-33.44264,4.96757-34.31318,5.0701-25.14575,2.71447-50.34307,3.07332-75.48881.87086-17.77129-1.5873-35.43973-2.10168-52.85248-6.09649l.01146-125.40284s2.73477-.51207,4.91785-.82124c52.77531-7.47411,87.7162-10.21458,139.24085-19.97831,89.32385-16.92655,181.4036-35.71147,254.44799-92.26039,14.88791-11.52598,29.7057-23.50591,41.30233-38.31106Z"/>
        <line class="cls-1" x1="898.60218" y1="804.76994" x2="768.1099" y2="849.73549"/>
      </g>
    </g>
  </g>
</svg>