<?xml version="1.0" encoding="UTF-8"?>
<svg id="Layer_1" data-name="Layer 1" xmlns="http://www.w3.org/2000/svg" viewBox="0 0 202.51 202.51">
  <defs>
    <style>
      .cls-1 {
        fill: #000;
        stroke-width: 0px;
      }
    </style>
  </defs>
  <path class="cls-1" d="M158.91,101.26c.12,23.46-15.73,43.56-37.5,51.23-36.39,13.38-79.78-10.61-79.94-51.23.16-40.62,43.55-64.6,79.94-51.23,21.77,7.66,37.63,27.76,37.5,51.23h0ZM150.52,101.26c.14-20.24-11.13-40.82-29.81-49.54-9.57-4.55-20.71-5.76-31.05-3.43-24.18,5.25-39.98,28.92-39.8,52.96-.18,24.04,15.62,47.71,39.8,52.96,10.34,2.33,21.48,1.13,31.05-3.43,18.68-8.72,29.95-29.3,29.81-49.53h0Z"/>
  <path class="cls-1" d="M117.94,116.44c0-4.41-1.91-8.47-6.4-8.47h18.75c-5.15,0-6.6,4.06-6.38,8.47v18.35c-.49-3.32-4.48-6.21-7.61-4.39-4.11,2.4-8.63,4.41-14.27,4.41-16.94,0-29.83-15.69-29.83-32.5s11.71-33.37,32.25-33.37c12.76,0,20.2,10.72,19.3,17.29-.82,6.01-6.93,4.67-6.29-.27,1.14-8.77-2.01-16.07-13.49-16.07-17.82,0-24.09,17.48-24.09,30.55,0,14.42,8.44,31.8,25.3,31.92,4.78.03,8.59-1.35,11.41-3.63.82-.66,1.35-2.18,1.35-3.23v-9.06Z"/>
</svg>