<?xml version="1.0" encoding="UTF-8" standalone="no"?>
<svg
   version="1.1"
   viewBox="0 0 1080 1080"
   id="svg4"
   sodipodi:docname="GOSUTALENT_PTY_LTD.svg"
   inkscape:version="1.3.2 (091e20e, 2023-11-25, custom)"
   xmlns:inkscape="http://www.inkscape.org/namespaces/inkscape"
   xmlns:sodipodi="http://sodipodi.sourceforge.net/DTD/sodipodi-0.dtd"
   xmlns="http://www.w3.org/2000/svg"
   xmlns:svg="http://www.w3.org/2000/svg">
  <sodipodi:namedview
     id="namedview4"
     pagecolor="#505050"
     bordercolor="#eeeeee"
     borderopacity="1"
     inkscape:showpageshadow="0"
     inkscape:pageopacity="0"
     inkscape:pagecheckerboard="0"
     inkscape:deskcolor="#505050"
     inkscape:zoom="0.825"
     inkscape:cx="540"
     inkscape:cy="540"
     inkscape:window-width="1920"
     inkscape:window-height="1129"
     inkscape:window-x="317"
     inkscape:window-y="1072"
     inkscape:window-maximized="1"
     inkscape:current-layer="svg4" />
  <!-- Generator: Adobe Illustrator 29.0.1, SVG Export Plug-In . SVG Version: 2.1.0 Build 192)  -->
  <defs
     id="defs1">
    <style
       id="style1">
      .st0 {
        fill: #6628c9;
      }

      .st1 {
        fill: #fbf2ed;
      }
    </style>
  </defs>
  <g
     id="Layer_1">
    <g
       id="g4">
      <path
         class="st0"
         d="M328.12477,425.26042l89.14779,89.14779c14.13396,14.13396,14.13396,37.04963,0,51.18359l-89.14779,89.14779h-83.40868v-38.76899l41.22267-41.61975,34.04374-34.37164-34.41801-33.99656-40.84841-40.34835v-40.37389h83.40868M348.13598,376.94901h-151.73128v108.87102l55.20947,54.53359-55.20947,55.74123v106.95614h151.73128l137.45921-137.45917c6.78737-6.78737,10.60047-15.99301,10.60047-25.5918v-.00003c0-9.59879-3.8131-18.80443-10.60047-25.5918l-137.45921-137.45917h0Z"
         id="path1" />
      <path
         class="st0"
         d="M835.2839,425.26042v40.37392l-40.84826,40.34831-34.41782,33.99656,34.04341,34.37164,41.22267,41.61982v38.76891h-83.40853l-89.14769-89.1478c-14.13394-14.13396-14.13394-37.04961,0-51.18356l89.14769-89.1478h83.40853M883.59531,376.94901h-151.73117l-137.45901,137.45918c-6.78736,6.78737-10.60045,15.993-10.60045,25.59178v.00006c0,9.59878,3.8131,18.80442,10.60045,25.59178l137.45901,137.45918h151.73117v-106.95614l-55.20928-55.74123,55.20928-54.53359v-108.87102h0Z"
         id="path2" />
      <path
         class="st0"
         d="M654.73964,244.71608v83.40864l-89.1478,89.14771c-14.13396,14.13394-37.04961,14.13394-51.18357,0l-89.1478-89.14771v-83.40864h38.76914l41.61993,41.22267,34.37145,34.04345,33.9966-34.41786,40.34816-40.84826h40.37389M703.05104,196.40467h-108.87102l-54.53344,55.2093-55.74138-55.2093h-106.95614v151.73128l137.45914,137.45904c6.78737,6.78736,15.99301,10.60046,25.59179,10.60046h.00012c9.59878,0,18.80442-3.8131,25.59179-10.60046l137.45914-137.45904v-151.73128h0Z"
         id="path3" />
      <path
         class="st0"
         d="M425.26047,835.28392v-83.40864l89.1478-89.14771c14.13396-14.13394,37.04961-14.13394,51.18357,0l89.1478,89.14771v83.40864h-38.76914l-41.61993-41.22267-34.37145-34.04345-33.9966,34.41786-40.34816,40.84826h-40.37389M376.94907,883.59533h108.87102l54.53344-55.2093,55.74138,55.2093h106.95614v-151.73128l-137.45914-137.45904c-6.78737-6.78736-15.99301-10.60046-25.59179-10.60046h-.00012c-9.59878,0-18.80442,3.8131-25.59179,10.60046l-137.45914,137.45904v151.73128h0Z"
         id="path4" />
    </g>
  </g>
</svg>
