<?xml version="1.0" encoding="UTF-8"?>
<svg id="Layer_1" data-name="Layer 1" xmlns="http://www.w3.org/2000/svg" xmlns:xlink="http://www.w3.org/1999/xlink" viewBox="0 0 297.31 297.31">
  <defs>
    <style>
      .cls-1 {
        clip-path: url(#clippath);
      }

      .cls-2 {
        fill: none;
      }

      .cls-2, .cls-3, .cls-4 {
        stroke-width: 0px;
      }

      .cls-3 {
        fill: #8400e2;
      }

      .cls-4 {
        fill: #00fbf3;
      }
    </style>
    <clipPath id="clippath">
      <path class="cls-2" d="M47.87,59.42v178.48h201.57V59.42H47.87ZM142.95,166.45c-3.43.47-6.75,1.33-9.9,2.62l-1.2-.27c3.14-5.56,4.93-11.79,5.22-18.3,2.98-.6,6.03-.97,9.12-1.1-.09,5.92-1.19,11.67-3.24,17.06ZM160.24,146.83c-2.98.6-6.03.97-9.12,1.1.08-5.9,1.19-11.66,3.23-17.05,3.39-.47,6.71-1.33,9.87-2.61l1.23.28c-3.14,5.57-4.93,11.81-5.21,18.29Z"/>
    </clipPath>
  </defs>
  <g>
    <path class="cls-3" d="M53.55,65.1h0c2.52-2.52,6.61-2.52,9.13,0l55.46,55.46c8.16,8.15,19,12.64,30.53,12.64s21.5-4.15,29.53-11.68l56.42-56.42c2.52-2.52,6.61-2.52,9.13,0h0c2.52,2.52,2.52,6.61,0,9.13l-56.34,56.34h0s-.32.31-.32.31c-10.41,9.81-24.07,15.23-38.42,15.23s-29.06-5.83-39.66-16.43l-55.46-55.46c-2.52-2.52-2.52-6.61,0-9.13Z"/>
    <path class="cls-3" d="M53.55,232.21c-2.52-2.52-2.52-6.61,0-9.13l55.46-55.46c10.6-10.59,24.69-16.43,39.66-16.43s28,5.41,38.44,15.25l.31.28h0s56.34,56.35,56.34,56.35c2.52,2.52,2.52,6.61,0,9.13h0c-2.52,2.52-6.61,2.52-9.13,0l-56.43-56.43c-8.05-7.54-18.52-11.68-29.53-11.68s-22.37,4.49-30.53,12.65l-55.46,55.46c-2.52,2.52-6.61,2.52-9.13,0h0Z"/>
  </g>
  <g>
    <path class="cls-4" d="M224.12,236.02c-1.77,1.77-4.63,1.77-6.4,0l-51.94-51.94c-9.47-9.47-14.68-22.06-14.68-35.44s4.84-25.02,13.62-34.35l.27-.29h0s52.72-52.71,52.72-52.71c1.77-1.77,4.63-1.77,6.4,0h0c1.77,1.77,1.77,4.63,0,6.4l-52.85,52.85c-7.18,7.65-11.12,17.62-11.12,28.1s4.27,21.28,12.03,29.04l51.94,51.94c1.77,1.77,1.77,4.63,0,6.4h0Z"/>
    <path class="cls-4" d="M73.19,236.02h0c-1.77-1.77-1.77-4.63,0-6.4l51.94-51.94c7.76-7.76,12.03-18.08,12.03-29.04s-3.95-20.47-11.13-28.11l-52.85-52.85c-1.77-1.77-1.77-4.63,0-6.4h0c1.77-1.77,4.63-1.77,6.4,0l52.72,52.72h0s.28.29.28.29c8.77,9.31,13.61,21.51,13.61,34.34s-5.21,25.97-14.68,35.44l-51.94,51.94c-1.77,1.77-4.63,1.77-6.4,0Z"/>
  </g>
  <g class="cls-1">
    <g>
      <path class="cls-3" d="M53.55,65.1h0c2.52-2.52,6.61-2.52,9.13,0l55.46,55.46c8.16,8.15,19,12.64,30.53,12.64s21.5-4.15,29.53-11.68l56.42-56.42c2.52-2.52,6.61-2.52,9.13,0h0c2.52,2.52,2.52,6.61,0,9.13l-56.34,56.34h0s-.32.31-.32.31c-10.41,9.81-24.07,15.23-38.42,15.23s-29.06-5.83-39.66-16.43l-55.46-55.46c-2.52-2.52-2.52-6.61,0-9.13Z"/>
      <path class="cls-3" d="M53.55,232.21c-2.52-2.52-2.52-6.61,0-9.13l55.46-55.46c10.6-10.59,24.69-16.43,39.66-16.43s28,5.41,38.44,15.25l.31.28h0s56.34,56.35,56.34,56.35c2.52,2.52,2.52,6.61,0,9.13h0c-2.52,2.52-6.61,2.52-9.13,0l-56.43-56.43c-8.05-7.54-18.52-11.68-29.53-11.68s-22.37,4.49-30.53,12.65l-55.46,55.46c-2.52,2.52-6.61,2.52-9.13,0h0Z"/>
    </g>
  </g>
</svg>