<?xml version="1.0" encoding="UTF-8"?>
<svg id="Layer_1" data-name="Layer 1" xmlns="http://www.w3.org/2000/svg" xmlns:xlink="http://www.w3.org/1999/xlink" viewBox="0 0 749.67 749.67">
  <defs>
    <style>
      .cls-1 {
        fill: none;
      }

      .cls-1, .cls-2, .cls-3, .cls-4 {
        stroke-width: 0px;
      }

      .cls-2 {
        fill: url(#linear-gradient);
      }

      .cls-3 {
        fill: url(#linear-gradient-2);
      }

      .cls-4 {
        fill: url(#linear-gradient-3);
      }
    </style>
    <linearGradient id="linear-gradient" x1="85.4" y1="417.66" x2="1394.93" y2="116.66" gradientUnits="userSpaceOnUse">
      <stop offset="0" stop-color="#c4a354"/>
      <stop offset=".26" stop-color="#decea4"/>
      <stop offset=".51" stop-color="#c4a354"/>
      <stop offset=".78" stop-color="#decea4"/>
      <stop offset="1" stop-color="#c4a354"/>
    </linearGradient>
    <linearGradient id="linear-gradient-2" x1="-194.51" y1="521.4" x2="1115.02" y2="220.4" xlink:href="#linear-gradient"/>
    <linearGradient id="linear-gradient-3" x1="128.72" y1="431.4" x2="620.95" y2="318.26" xlink:href="#linear-gradient"/>
  </defs>
  <g>
    <g>
      <path class="cls-2" d="M222.17,379.24c-3.86-3.2-6.7-7.34-8.55-12.42-1.84-5.08-2.46-10.91-1.84-17.47.61-6.56,2.56-13.73,5.84-21.53,3.28-7.79,8.16-15.99,14.64-24.6,3.61-4.84,7.48-9.55,11.62-14.15,4.14-4.59,8.43-8.92,12.85-12.98,4.43-4.06,8.92-7.79,13.47-11.19,4.55-3.4,9.02-6.35,13.41-8.86,4.39-2.5,8.65-4.49,12.79-5.97,4.14-1.48,8.02-2.34,11.62-2.58,4.84-.33,8.73.64,11.69,2.89,2.95,2.26,5.08,5.31,6.4,9.16,1.31,3.85,1.91,8.26,1.78,13.22-.12,4.96-.76,9.94-1.91,14.94-1.15,5-2.77,9.82-4.86,14.45-2.09,4.63-4.45,8.55-7.07,11.75-1.56,1.89-3.08,3.18-4.55,3.87-1.48.7-2.83.98-4.06.86-1.23-.12-2.23-.57-3.01-1.35-.78-.78-1.27-1.7-1.48-2.77-.21-1.07-.02-2.15.55-3.26.57-1.11,1.6-2.11,3.08-3.01,3.93-2.29,7.32-5.19,10.15-8.67,2.83-3.49,5.02-7.15,6.58-11.01,1.56-3.85,2.44-7.71,2.64-11.56.2-3.85-.31-7.28-1.54-10.27-1.23-2.99-3.22-5.37-5.97-7.13-2.75-1.76-6.3-2.48-10.64-2.15-5,.41-10.85,2.17-17.53,5.29-6.69,3.12-13.51,7.24-20.48,12.36-6.97,5.12-13.7,11.09-20.17,17.9-6.48,6.81-12.01,14.15-16.61,22.02-5.99,10.09-9.86,18.78-11.62,26.08-1.77,7.3-1.91,13.33-.43,18.08,1.48,4.76,4.26,8.32,8.36,10.7,4.1,2.38,9.06,3.69,14.88,3.94,5.58.25,11.75-.57,18.51-2.46,6.76-1.89,13.57-4.51,20.42-7.87,6.85-3.36,13.53-7.3,20.05-11.81,6.52-4.51,12.36-9.29,17.53-14.33,5.17-5.04,9.43-10.15,12.79-15.31,3.36-5.17,5.29-10.13,5.78-14.88-.25-2.46.02-4.43.8-5.9.78-1.48,1.7-2.26,2.77-2.34,1.07-.08,2.07.66,3.01,2.21.94,1.56,1.37,4.14,1.29,7.75-.41,4.35-1.19,9.47-2.34,15.37-1.15,5.9-2.58,12.16-4.31,18.76-1.72,6.6-3.71,13.31-5.96,20.11-2.26,6.81-4.66,13.28-7.2,19.43,7.21-3.94,14.59-8.08,22.14-12.42,7.54-4.35,14.92-8.36,22.14-12.05,1.64-.82,3.06-1.21,4.24-1.17,1.19.04,1.95.35,2.28.92.33.57.1,1.35-.68,2.34-.78.98-2.28,2.01-4.49,3.07-8.2,4.18-16.38,8.55-24.54,13.1-8.16,4.55-15.97,9-23.43,13.35-3.61,9.43-7.81,18.94-12.61,28.54-4.8,9.59-9.53,18.86-14.21,27.8-4.1,7.79-8.34,14.78-12.73,20.97-4.39,6.19-8.82,11.54-13.29,16.05-4.47,4.51-8.92,8.22-13.35,11.13-4.43,2.91-8.73,5.02-12.91,6.33-4.18,1.31-8.02,1.86-11.5,1.66-3.49-.21-6.44-1.09-8.86-2.64-2.42-1.56-4.2-3.79-5.35-6.7-1.15-2.91-1.39-6.42-.74-10.52.65-4.1,2.29-8.8,4.92-14.08s6.44-11.09,11.44-17.41c4.51-5.66,9.67-11.17,15.5-16.54,5.82-5.37,12.16-10.62,19-15.74,6.85-5.13,14.13-10.15,21.83-15.07,7.71-4.92,15.7-9.76,23.98-14.51,3.2-6.97,6.07-13.41,8.61-19.31,2.54-5.9,4.84-11.73,6.89-17.47,2.05-5.74,3.83-11.64,5.35-17.71,1.51-6.07,2.81-12.79,3.87-20.17-.98,4.18-2.97,8.69-5.96,13.53-3,4.84-6.7,9.7-11.13,14.58-4.43,4.88-9.39,9.66-14.88,14.33-5.49,4.67-11.25,8.94-17.28,12.79-6.03,3.85-12.16,7.16-18.39,9.9-6.23,2.75-12.32,4.67-18.27,5.78-5.94,1.11-11.56,1.23-16.85.37-5.29-.86-9.94-2.97-13.96-6.33ZM238.77,458.21c-3.44,4.43-6.09,8.36-7.93,11.81-1.84,3.44-3.09,6.44-3.75,8.98-.66,2.54-.78,4.61-.37,6.21s1.15,2.68,2.21,3.26c1.72.99,4.35.88,7.87-.31,3.52-1.19,7.54-3.38,12.05-6.58,4.51-3.2,9.31-7.38,14.39-12.55,5.08-5.17,10.04-11.28,14.88-18.33,5.58-8.04,11.09-16.67,16.54-25.89,5.45-9.23,10.52-18.35,15.19-27.37-7.3,4.43-14.35,9.14-21.16,14.15-6.81,5-13.25,10.11-19.31,15.31-6.07,5.21-11.69,10.46-16.85,15.74-5.17,5.29-9.76,10.47-13.78,15.56Z"/>
      <path class="cls-3" d="M402.78,295.17c-1.89,5.58-4.47,12.05-7.75,19.43-3.28,7.38-6.69,15.21-10.21,23.49-.9,2.13-2.11,5.25-3.63,9.35-1.52,4.1-3.06,8.67-4.61,13.72-1.56,5.04-3.06,10.33-4.49,15.87-1.43,5.54-2.5,10.89-3.2,16.05-.7,5.17-.94,9.86-.74,14.08.2,4.22,1.13,7.56,2.77,10.03,1.64,2.46,4.12,3.75,7.44,3.87,3.32.12,7.73-1.33,13.22-4.37,4.26-2.3,8.38-5.46,12.36-9.47,3.98-4.02,7.71-8.53,11.19-13.53,3.49-5,6.74-10.35,9.78-16.05,3.03-5.7,5.74-11.38,8.12-17.04,1.07-2.71,2.19-5.55,3.38-8.55,1.19-2.99,2.28-6.05,3.26-9.16.98-3.12,1.74-6.27,2.28-9.47.53-3.2.76-6.44.68-9.72-.17-2.38.12-4.32.86-5.84.74-1.52,1.58-2.4,2.52-2.64.94-.25,1.82.23,2.64,1.41.82,1.19,1.31,3.26,1.48,6.21.33,5.33-.06,11.67-1.17,19-1.11,7.34-2.48,15.23-4.12,23.68-2.79,13.78-4.79,27.04-6.03,39.79-1.23,12.75-1.68,25.69-1.35,38.81.08,5.66.47,10.27,1.17,13.84.7,3.57,1.66,6.38,2.89,8.43,1.23,2.05,2.68,3.44,4.36,4.18,1.68.74,3.55,1.11,5.6,1.11,2.71,0,5.68-.76,8.92-2.28,3.24-1.52,6.54-3.65,9.9-6.4,3.36-2.75,6.72-6.11,10.09-10.09,3.36-3.98,6.56-8.43,9.6-13.35,11.89-19.52,21.53-40.28,28.91-62.3,7.38-22.02,11.89-44.47,13.53-67.35.49-6.97.7-13.51.62-19.62-.08-6.11-.51-11.6-1.29-16.48-.78-4.88-1.95-9-3.51-12.36-1.56-3.36-3.57-5.78-6.03-7.26-1.56-.82-2.32-1.85-2.28-3.07.04-1.23.57-2.19,1.6-2.89,1.02-.7,2.36-.94,4-.74,1.64.21,3.28,1.29,4.92,3.26,1.72,1.97,3.12,4.98,4.18,9.04s1.89,8.88,2.46,14.45c.57,5.58.9,11.77.99,18.57.08,6.81,0,13.94-.25,21.4-.49,12.79-1.74,25.51-3.75,38.13-2.01,12.63-4.8,24.87-8.36,36.72-3.57,11.85-7.98,23.17-13.22,33.95-5.25,10.78-11.36,20.73-18.33,29.83-3.61,4.68-7.38,8.88-11.32,12.61-3.93,3.73-7.89,6.83-11.87,9.29-3.98,2.46-7.89,4.2-11.75,5.23-3.86,1.02-7.42,1.13-10.7.31-2.3-.66-4.43-1.78-6.39-3.38-1.97-1.6-3.67-3.77-5.11-6.52-1.44-2.75-2.58-6.09-3.44-10.03-.86-3.94-1.33-8.53-1.42-13.78-.16-7.22-.1-14.29.19-21.22.29-6.93.72-13.78,1.29-20.54.57-6.77,1.31-13.55,2.21-20.36.9-6.81,1.93-13.73,3.08-20.79-2.63,5.99-5.7,11.99-9.23,18.02-3.53,6.03-7.34,11.69-11.44,16.98-4.1,5.29-8.39,10.04-12.86,14.27-4.47,4.22-9,7.56-13.59,10.03-5.9,3.12-10.81,4.61-14.7,4.49-3.9-.12-6.95-1.42-9.17-3.87-2.21-2.46-3.73-5.86-4.55-10.21-.82-4.35-1.15-9.21-.98-14.58.16-5.37.69-11.03,1.6-16.98.9-5.94,1.97-11.77,3.2-17.47,1.23-5.7,2.52-11.05,3.87-16.05,1.35-5,2.52-9.23,3.51-12.67,1.64-5.66,3.3-11.13,4.98-16.42,1.68-5.29,3.28-10.09,4.8-14.39,1.52-4.31,2.87-7.95,4.06-10.95,1.19-2.99,2.11-5.06,2.77-6.21,1.48-2.46,3.09-3.87,4.86-4.24,1.76-.37,3.3-.06,4.61.92s2.23,2.46,2.77,4.43c.53,1.97.31,4.1-.68,6.4Z"/>
    </g>
    <path class="cls-4" d="M374.83,627.27c-67.43,0-130.82-26.26-178.5-73.94-47.68-47.68-73.94-111.07-73.94-178.5s26.26-130.82,73.94-178.5c47.68-47.68,111.07-73.94,178.5-73.94s130.82,26.26,178.5,73.94c47.68,47.68,73.94,111.07,73.94,178.5s-26.26,130.82-73.94,178.5-111.07,73.94-178.5,73.94ZM374.83,128.88c-65.7,0-127.46,25.58-173.91,72.04s-72.04,108.22-72.04,173.91,25.58,127.46,72.04,173.91c46.45,46.45,108.22,72.04,173.91,72.04s127.46-25.58,173.91-72.04,72.04-108.22,72.04-173.91-25.58-127.46-72.04-173.91c-46.45-46.45-108.22-72.04-173.91-72.04Z"/>
  </g>
  <rect class="cls-1" x="0" y="0" width="749.67" height="749.67"/>
</svg>