<?xml version="1.0" encoding="UTF-8"?>
<svg id="Layer_1" data-name="Layer 1" xmlns="http://www.w3.org/2000/svg" viewBox="0 0 1800 1800">
  <defs>
    <style>
      .cls-1 {
        fill: none;
      }

      .cls-2 {
        fill: #f18c29;
      }

      .cls-3 {
        fill: #080e5f;
      }
    </style>
  </defs>
  <rect class="cls-1" width="1800" height="1800"/>
  <g>
    <path class="cls-3" d="m519.66,1094.68V458.66c0-9.28,4.65-17.94,12.39-23.05l159.12-105.22c12.25-8.1,28.59.68,28.59,15.37v748.92c0,7.51-6.08,13.59-13.59,13.59h-172.92c-7.51,0-13.59-6.08-13.59-13.59Z"/>
    <path class="cls-3" d="m1000.07,701.17v643.57c0,4.56-2.29,8.82-6.09,11.34l-172.92,114.35c-9.03,5.97-21.08-.5-21.08-11.34v-757.92c0-7.51,6.08-13.59,13.59-13.59h172.92c7.51,0,13.59,6.08,13.59,13.59Z"/>
    <path class="cls-2" d="m1280.34,701.15v267.55c0,4.56-2.29,8.82-6.09,11.34l-172.83,114.27c-9.03,5.97-21.08-.51-21.08-11.34v-381.82c0-7.51,6.08-13.59,13.59-13.59h172.83c7.51,0,13.59,6.08,13.59,13.59Z"/>
  </g>
</svg>