<?xml version="1.0" encoding="UTF-8"?><svg id="a" xmlns="http://www.w3.org/2000/svg" viewBox="0 0 248.53 248.53"><defs><style>.b{fill:#001d6e;}</style></defs><path class="b" d="M212.84,15c11.41,0,20.7,9.28,20.7,20.7V212.84c0,11.41-9.28,20.7-20.7,20.7H35.7c-11.41,0-20.7-9.28-20.7-20.7V35.7c0-11.41,9.28-20.7,20.7-20.7H212.84M212.84,0H35.7C15.98,0,0,15.98,0,35.7V212.84C0,232.55,15.98,248.53,35.7,248.53H212.84c19.71,0,35.7-15.98,35.7-35.7V35.7C248.53,15.98,232.55,0,212.84,0h0Z"/><path class="b" d="M157.26,47.28h25.3V201.26h-25.3v-66.65H91.27v66.65h-25.3V47.28h25.3v63.13h65.99V47.28Z"/></svg>
