<?xml version="1.0" encoding="UTF-8"?>
<svg id="Layer_1" data-name="Layer 1" xmlns="http://www.w3.org/2000/svg" viewBox="0 0 1200 400">
  <defs>
    <style>
      .cls-1 {
        fill: none;
      }

      .cls-2 {
        fill: #03002e;
      }
    </style>
  </defs>
  <rect class="cls-1" y="0" width="1200" height="400"/>
  <g>
    <g>
      <g>
        <path class="cls-2" d="m384.16,120.07h22.93v42.09h40.2v-42.09h22.93v105.08h-22.93v-43.11h-40.2v43.11h-22.93v-105.08Z"/>
        <path class="cls-2" d="m558.31,206.85h-44.99l-6.68,18.29h-24.09l41.65-105.08h23.22l41.8,105.08h-24.24l-6.68-18.29Zm-6.1-16.84l-16.4-44.99-16.4,44.99h32.8Z"/>
        <path class="cls-2" d="m659.61,225.14l-18.43-33.67c-1.89.14-3.77.14-5.66.14h-11.03v33.53h-23.08v-105.08h33.96c33.82,0,47.6,11.32,47.6,35.27,0,15.1-6.68,26.12-20.61,31.93l23.22,37.88h-25.98Zm-23.08-50.8c16.11,0,23.37-4.35,23.37-17.41s-7.26-17.56-23.37-17.56h-12.19v34.98h12.19Z"/>
        <path class="cls-2" d="m691.83,120.21h24.67l21.77,72.71,20.18-72.71h18.72l20.32,72.71,21.77-72.71h24.82l-34.54,104.93h-21.48l-20.18-72.28-20.17,72.28h-21.33l-34.54-104.93Z"/>
        <path class="cls-2" d="m856.26,120.07h69.52v20.46h-46.59v22.64h43.98v17.85h-43.98v23.65h46.59v20.47h-69.52v-105.08Z"/>
        <path class="cls-2" d="m946.67,120.07h22.93v84.61h38.9v20.47h-61.83v-105.08Z"/>
        <path class="cls-2" d="m1025.62,120.07h22.93v84.61h38.9v20.47h-61.83v-105.08Z"/>
      </g>
      <g>
        <path class="cls-2" d="m383.92,263.76c0-11.27,7.28-16.35,14.82-16.35,5.57,0,11.66,2.72,13.77,10.48l-3.46.7c-1.45-5.09-5.3-7.85-10.3-7.85-6.75,0-11.18,5.04-11.18,13.02s4.3,12.98,11.18,12.98c5.09,0,8.94-2.9,10.35-8.15l3.46.7c-1.97,7.98-8.2,10.78-13.81,10.78-7.54,0-14.82-4.73-14.82-16.31Z"/>
        <path class="cls-2" d="m464.68,263.71c0-11.31,7.06-16.26,14.95-16.26s14.86,4.95,14.86,16.26-7.06,16.31-14.95,16.31-14.86-4.78-14.86-16.31Zm26.26,0c0-8.11-4.38-12.98-11.31-12.98s-11.44,4.82-11.44,12.98,4.25,13.02,11.36,13.02,11.4-4.73,11.4-13.02Z"/>
        <path class="cls-2" d="m548.02,247.8h3.73l18.76,26.44v-26.44h3.51v31.74h-3.59l-18.85-26.57v26.57h-3.55v-31.74Z"/>
        <path class="cls-2" d="m626.33,272.08l3.29-.83c1.58,3.55,5.26,5.57,10,5.57,5.08,0,8.42-2.24,8.42-5.83,0-8.81-20.39-2.85-20.39-15.04,0-5.09,4.65-8.64,11.01-8.64s10.61,2.59,12.49,7.45l-3.2.79c-1.62-3.37-4.73-5.04-9.25-5.04s-7.63,2.15-7.63,5.44c0,9.03,20.43,2.67,20.43,15.08,0,5.39-4.82,8.95-11.84,8.95-6.49,0-11.49-2.9-13.33-7.89Z"/>
        <path class="cls-2" d="m703.44,264.63v-16.84h3.55v16.84c0,8.59,2.98,12.06,9.42,12.06s9.43-3.47,9.43-12.06v-16.84h3.55v16.84c0,10.48-4.47,15.35-12.98,15.35s-12.98-4.82-12.98-15.35Z"/>
        <path class="cls-2" d="m783.45,247.8h3.55v28.45h14.78v3.29h-18.33v-31.74Z"/>
        <path class="cls-2" d="m855.34,251.08h-9.3v-3.29h22.1v3.29h-9.25v28.45h-3.55v-28.45Z"/>
        <path class="cls-2" d="m920.53,247.8h3.55v31.74h-3.55v-31.74Z"/>
        <path class="cls-2" d="m978.56,247.8h3.73l18.76,26.44v-26.44h3.51v31.74h-3.59l-18.85-26.57v26.57h-3.55v-31.74Z"/>
        <path class="cls-2" d="m1058.13,263.58c0-9.69,6.05-16.27,14.86-16.27,6.14,0,10.61,2.41,12.98,7.5l-3.42.84c-1.93-3.51-5-5.13-9.51-5.13-6.79,0-11.35,5.17-11.35,13.11s4.38,13.11,11.31,13.11,10.78-3.9,11.05-11.09h-10.96v-3.16h14.6v2.02c0,9.51-5.7,15.39-14.82,15.39s-14.73-6.4-14.73-16.31Z"/>
      </g>
    </g>
    <g>
      <polygon class="cls-2" points="159.15 181.89 133.89 181.89 133.89 120.18 113.09 120.18 113.09 279.82 133.89 279.82 133.89 202.69 159.15 202.69 159.15 279.82 179.95 279.82 179.95 120.18 159.15 120.18 159.15 181.89"/>
      <path class="cls-2" d="m314.04,159.38v-19.22c0-5.03-1.58-9.47-4.71-13.19-3.13-3.71-7.19-6.02-12.07-6.87l-.23-.04h-32.64l-.23.04c-4.88.84-8.97,3.15-12.16,6.85-3.21,3.72-4.84,8.17-4.84,13.23v119.63c0,5.06,1.63,9.51,4.84,13.23,3.2,3.71,7.29,6.01,12.16,6.85l.23.04h32.64l.23-.04c4.88-.84,8.94-3.15,12.07-6.87,3.12-3.71,4.71-8.15,4.71-13.19v-19.22h-20.8v18.51h-25.26v-118.27h25.26v18.51h20.8Z"/>
      <rect class="cls-2" x="210.43" y="89.65" width="6.27" height="220.69"/>
    </g>
  </g>
</svg>