<?xml version="1.0" encoding="UTF-8"?>
<svg id="Layer_1" data-name="Layer 1" xmlns="http://www.w3.org/2000/svg" viewBox="0 0 136.68 97.04">
  <defs>
    <style>
      .cls-1 {
        fill: #062634;
      }

      .cls-1, .cls-2, .cls-3 {
        stroke-width: 0px;
      }

      .cls-2 {
        fill: #c60216;
      }

      .cls-3 {
        fill: #fff;
      }
    </style>
  </defs>
  <path class="cls-1" d="M127.44,65.2V31.83c0-4.36-2.65-8.29-6.69-9.93L75.1,3.45c-4.34-1.75-9.18-1.75-13.52,0L15.94,21.91c-4.05,1.64-6.69,5.56-6.69,9.93v33.37c0,4.36,2.65,8.29,6.69,9.93l45.65,18.46c4.34,1.75,9.18,1.75,13.52,0l45.65-18.46c4.05-1.64,6.69-5.56,6.69-9.93Z"/>
  <path class="cls-3" d="M68.34,92.55c-2.08,0-4.15-.39-6.13-1.16l-45.31-17.77c-3.65-1.43-6.01-4.89-6.01-8.81v-32.59c0-3.92,2.36-7.38,6.01-8.81L62.21,5.64c3.95-1.55,8.3-1.55,12.26,0l45.31,17.77c3.65,1.43,6.01,4.89,6.01,8.81v32.59c0,3.92-2.36,7.38-6.01,8.81l-45.31,17.77c-1.98.77-4.05,1.16-6.13,1.16ZM68.34,6.06c-1.88,0-3.76.35-5.55,1.05L17.48,24.88c-3.04,1.19-5.01,4.08-5.01,7.35v32.59c0,3.27,1.97,6.15,5.01,7.35l45.31,17.77c3.58,1.4,7.52,1.4,11.11,0l45.31-17.77c3.04-1.19,5.01-4.08,5.01-7.35v-32.59c0-3.27-1.97-6.15-5.01-7.35L73.9,7.11c-1.79-.7-3.67-1.05-5.55-1.05Z"/>
  <g>
    <g>
      <path class="cls-2" d="M77.83,50.77c1.26-1.18,2.29-2.52,3.07-4.02.78-1.5,1.17-3.06,1.17-4.68,0-1.03-.21-2.09-.64-3.18-.43-1.09-1.07-2.09-1.94-3-.87-.91-1.96-1.65-3.29-2.23-1.32-.57-2.88-.86-4.68-.86-2.35,0-4.35.49-5.98,1.48-1.63.99-2.87,2.34-3.71,4.06-.84,1.72-1.26,3.68-1.26,5.89h5.16c0-1.35.23-2.54.68-3.57.46-1.03,1.11-1.82,1.96-2.36.85-.54,1.87-.82,3.04-.82.85,0,1.6.14,2.25.42.65.28,1.2.66,1.65,1.13.46.47.79.99,1.01,1.57.22.57.33,1.15.33,1.74,0,.82-.13,1.6-.4,2.34-.27.74-.66,1.47-1.19,2.21-.53.74-1.16,1.5-1.9,2.29l-14.3,15.05h23.57v-4.85h-13.41l8.78-8.61Z"/>
      <path class="cls-2" d="M110.88,53.81h-4.85v-20.48h-3.13l-17.43,24.98h15.22v5.91h5.34v-5.91h4.85v-4.5ZM101,42.65v11.56h-7.9l7.9-11.56Z"/>
    </g>
    <g>
      <polygon class="cls-3" points="38.45 45.25 31.01 45.25 31.01 33.34 25.8 33.34 25.8 64.23 31.01 64.23 31.01 50.06 38.45 50.06 38.45 45.25"/>
      <rect class="cls-3" x="46.54" y="33.34" width="5.21" height="3.6"/>
      <rect class="cls-3" x="46.54" y="58.09" width="5.21" height="6.14"/>
      <polygon class="cls-3" points="51.75 45.25 51.75 38.75 46.54 38.75 46.54 45.25 40.27 45.25 40.27 50.06 46.54 50.06 46.54 56.27 51.75 56.27 51.75 50.06 58.02 50.06 58.02 45.25 51.75 45.25"/>
    </g>
  </g>
</svg>