<?xml version="1.0" encoding="UTF-8"?>
<svg id="Layer_1" data-name="Layer 1" xmlns="http://www.w3.org/2000/svg" xmlns:xlink="http://www.w3.org/1999/xlink" viewBox="0 0 342.8 342.8">
  <defs>
    <linearGradient id="linear-gradient" x1="162.44" y1="168.81" x2="86.31" y2="216.27" gradientUnits="userSpaceOnUse">
      <stop offset="0" stop-color="#c13427"/>
      <stop offset="1" stop-color="#a52a20"/>
    </linearGradient>
    <linearGradient id="linear-gradient-2" x1="-398.77" y1="315.71" x2="-398.77" y2="139.31" gradientTransform="translate(-283.78) rotate(-180) scale(1 -1)" gradientUnits="userSpaceOnUse">
      <stop offset="0" stop-color="#da6941"/>
      <stop offset="1" stop-color="#ffdf59"/>
    </linearGradient>
    <linearGradient id="linear-gradient-3" x1="218.04" y1="226.85" x2="218.04" y2="316.49" gradientUnits="userSpaceOnUse">
      <stop offset="0" stop-color="#812ab8"/>
      <stop offset="1" stop-color="#529fff"/>
    </linearGradient>
    <linearGradient id="linear-gradient-4" x1="24.54" y1="219.15" x2="263.23" y2="219.15" gradientUnits="userSpaceOnUse">
      <stop offset="0" stop-color="#892b51"/>
      <stop offset="1" stop-color="#ff5496"/>
    </linearGradient>
  </defs>
  <path d="M105.49,158.53c-13.82,0-22.39,15.01-15.39,26.93,9.51,16.19,27.32,34.66,60.09,39.99v-66.92h-44.7Z" fill="url(#linear-gradient)"/>
  <path d="M227.13,236.68c3.39,1.52,6.45,3.15,9.23,4.88-2.78-1.72-5.85-3.36-9.23-4.88Z" fill="none"/>
  <path d="M236.37,241.56c2.22,1.38,4.26,2.81,6.13,4.28-1.87-1.47-3.91-2.9-6.13-4.28Z" fill="none"/>
  <path d="M215.99,232.55c4.05,1.23,7.76,2.62,11.15,4.13-3.39-1.52-7.09-2.91-11.15-4.13Z" fill="none"/>
  <path d="M205.57,229.94c3.71.75,7.17,1.63,10.42,2.61-3.24-.98-6.71-1.86-10.42-2.61Z" fill="none"/>
  <path d="M190.52,227.74c4.33.41,8.4.97,12.22,1.65-3.83-.69-7.9-1.25-12.22-1.65Z" fill="none"/>
  <path d="M242.5,245.84c1.87,1.47,3.57,2.97,5.11,4.48-1.54-1.51-3.24-3.01-5.11-4.48Z" fill="none"/>
  <path d="M173.06,226.96h0c6.24,0,12.06.27,17.46.78-5.41-.51-11.22-.78-17.46-.78Z" fill="none"/>
  <path d="M247.61,250.32c.77.76,1.51,1.52,2.2,2.28-.7-.76-1.43-1.52-2.2-2.28Z" fill="none"/>
  <path d="M249.81,252.59c.7.76,1.36,1.52,1.98,2.28-.63-.76-1.29-1.52-1.98-2.28Z" fill="none"/>
  <path d="M251.8,254.88c1.25,1.52,2.36,3.03,3.35,4.52-.99-1.49-2.1-3-3.35-4.52Z" fill="none"/>
  <path d="M90.1,185.46c-7-11.92,1.56-26.93,15.39-26.93h44.7v-61.8c0-38.89-31.53-70.42-70.42-70.42h0v220.37c0,38.12,30.9,69.03,69.03,69.03h0c.77,0,1.39-.62,1.39-1.39v-88.87c-32.77-5.33-50.59-23.8-60.09-39.99Z" fill="url(#linear-gradient-2)"/>
  <path d="M255.15,259.4c-.99-1.49-2.1-3-3.35-4.52-.63-.76-1.29-1.52-1.98-2.28-.7-.76-1.43-1.52-2.2-2.28-1.54-1.51-3.24-3.01-5.11-4.48-1.87-1.47-3.91-2.9-6.13-4.28-2.78-1.72-5.85-3.36-9.23-4.88-3.39-1.52-7.09-2.91-11.15-4.13-3.24-.98-6.71-1.86-10.42-2.61-.93-.19-1.87-.37-2.82-.54-3.83-.69-7.9-1.25-12.22-1.65-5.41-.51-11.22-.78-17.46-.78,13.83,1.07,21.57,12.95,21.57,27.36v27.17s0,.05,0,.07v3.21c0,17.62,14.36,31.86,31.97,31.72l36.42-.29v-36.42s-.03-.47-.11-.95c-.22-1.61-.88-5.31-2.79-10.04-1.02-2.52-2.4-5.33-4.25-8.28-.23-.37-.47-.74-.72-1.11Z" fill="url(#linear-gradient-3)"/>
  <path d="M194.7,158.53h-44.51v66.92c6,.98,12.5,1.51,19.55,1.51h3.32c6.24,0,12.05.27,17.46.78,4.33.41,8.4.97,12.22,1.65.96.17,1.9.35,2.82.54,3.71.75,7.17,1.63,10.42,2.61,4.05,1.23,7.76,2.62,11.15,4.13,3.39,1.52,6.46,3.15,9.23,4.88,2.22,1.38,4.26,2.81,6.13,4.28,1.87,1.47,3.57,2.97,5.11,4.48.77.76,1.51,1.52,2.2,2.28.7.76,1.36,1.52,1.98,2.28,1.25,1.52,2.36,3.03,3.35,4.52.25.37.49.74.72,1.11,1.86,2.94,3.23,5.76,4.25,8.28,1.91,4.73,2.58,8.43,2.79,10.04.08.59.11.95.11.95v-52.92h0c0-37.74-30.59-68.33-68.33-68.33Z" fill="url(#linear-gradient-4)"/>
</svg>