<?xml version="1.0" encoding="UTF-8"?>
<svg id="Layer_1" data-name="Layer 1" xmlns="http://www.w3.org/2000/svg" viewBox="0 0 266.45 254.26">
  <defs>
    <style>
      .cls-1 {
        fill: #0c2431;
      }
    </style>
  </defs>
  <path class="cls-1" d="M164.98,138.21l-11.55-2.19,6.42,7.2,11.55,2.19-6.42-7.2ZM209.26,168.5l-22.94-25.72,2.11-9.39-39.07-47.88c-6.71-8.23-14.32-15.69-22.68-22.24l-56.41-44.23,52.54,46.49c6.39,5.65,12.26,11.86,17.55,18.56l27.45,34.76-8.12-1.54-37.01-32.33c-6.64-5.8-13.08-11.82-19.32-18.06L57.19,15.57l27.06,37.55c12.37,14.42,25.78,27.92,40.1,40.4l25.03,21.81-2.71,14.26,21.62,4.1,8.79,9.85-1.29,6.79-6.48-1.23-3.75,19.76c30.29,5.75,26.23,11.88,26.23,11.88,13.96,2.65,15.69-5.26,15.69-5.26l1.35-7.09M182.6,120.96s9.19-15.09-10.45-28.84c0,0,1.48,7.99-.04,16.01l10.49,12.83ZM142.79,128.77s-4.48-4.56-6.16-11.33c-1.68-6.77-8.47-17.89-28.02-21.6,0,0-2.12,26.04,34.18,32.93Z"/>
  <path class="cls-1" d="M161.15,192.14l-5.33,27.84-51.36,18.71-28.9-41.5,39.66-14.64,26.72-33.87h0c-2.58,13.58,2.02,27.53,12.16,36.92l7.06,6.54Z"/>
</svg>