<?xml version="1.0" encoding="UTF-8"?>
<svg id="Layer_1" xmlns="http://www.w3.org/2000/svg" version="1.1" viewBox="0 0 1920 1080">
  <!-- Generator: Adobe Illustrator 29.0.0, SVG Export Plug-In . SVG Version: 2.1.0 Build 186)  -->
  <defs>
    <style>
      .st0 {
        fill: #00010d;
      }

      .st1 {
        fill: #a305a6;
      }

      .st2 {
        fill: #439cfb;
      }

      .st3 {
        fill: #f187fb;
      }

      .st4 {
        fill: #9a92fb;
      }
    </style>
  </defs>
  <g>
    <path class="st0" d="M401.12017,565.19322v188.69761h-59.16689v-188.69761h59.16689Z"/>
    <path class="st0" d="M696.74517,565.19322v188.69761h-58.90119v-94.0831l-29.05204,94.0831h-50.63945l-29.05048-94.0831v94.0831h-59.16845v-188.69761h72.49569l41.57749,113.26983,40.51156-113.26983h72.22686Z"/>
    <path class="st0" d="M911.63776,662.3397c-5.50782,9.68714-13.63514,17.37058-24.38508,23.05345-10.75307,5.68912-23.76616,8.53056-39.04552,8.53056h-23.45357v59.96712h-59.17001v-188.69761h82.62358c23.09409,0,40.8179,5.86105,53.17143,17.5894,12.34727,11.72835,18.52404,27.45159,18.52404,47.17596,0,11.9034-2.75704,22.70023-8.26486,32.38112ZM859.9355,629.95858c0-11.55017-6.133-17.32682-18.39275-17.32682h-16.78917v34.65051h16.78917c12.25975,0,18.39275-5.77352,18.39275-17.32369Z"/>
    <path class="st0" d="M1081.06424,725.37331h-62.8992l-9.32766,28.51751h-62.1021l69.0322-188.69761h68.22885l68.76338,188.69761h-62.3678l-9.32766-28.51751ZM1066.67263,680.86373l-17.05799-52.50561-17.05799,52.50561h34.11599Z"/>
    <path class="st0" d="M1200.01069,609.43397c7.55216-14.56666,18.34586-25.89489,32.38424-33.98157,14.03213-8.08356,30.55872-12.12534,49.57352-12.12534,16.34529,0,30.95884,3.06337,43.84376,9.19325,12.87868,6.12987,23.35979,14.79172,31.44648,25.98554,8.08356,11.19695,13.46009,24.2538,16.12648,39.17993h-62.3678c-2.84144-6.2174-6.88634-11.05941-12.12534-14.52602-5.24525-3.46349-11.24071-5.19523-17.99264-5.19523-9.95284,0-17.81446,3.72919-23.58486,11.19382-5.77665,7.4615-8.66185,17.50187-8.66185,30.11485,0,12.61923,2.8852,22.65647,8.66185,30.11797,5.7704,7.4615,13.63202,11.19382,23.58486,11.19382,6.75193,0,12.74739-1.73174,17.99264-5.19523,5.239-3.46661,9.2839-8.3055,12.12534-14.52602h62.3678c-2.66639,14.92301-8.04292,27.98299-16.12648,39.17681-8.08668,11.19382-18.5678,19.85567-31.44648,25.98554-12.88493,6.133-27.49847,9.19637-43.84376,9.19637-19.0148,0-35.54139-4.03865-49.57352-12.12534-14.03838-8.08356-24.83209-19.41179-32.38424-33.98157-7.55216-14.56978-11.32511-31.1839-11.32511-49.84235,0-18.65532,3.77295-35.26632,11.32511-49.83923Z"/>
    <path class="st0" d="M1578.04671,565.19322v46.90714h-50.10805v141.79047h-59.16689v-141.79047h-49.57352v-46.90714h158.84846Z"/>
  </g>
  <path class="st2" d="M956.58041,175.55271l.72554-.18791c32.93948,106.28036,70.64517,216.43044,85.29378,326.88143l-.7226.1913c-41.30005-103.98555-61.89341-217.08671-85.29672-326.88481Z"/>
  <path class="st4" d="M900.42091,459.74504c-28.64218-25.7363-53.47973-55.52504-75.64281-87.02361l.51187-.55085c33.051,19.78296,64.59409,42.36582,92.37288,69.02992,26.55856,27.71789,49.94131,58.46753,75.64213,87.0244l-.51187.54768c-30.3762-23.52285-62.769-44.58672-92.37221-69.02754Z"/>
  <path class="st3" d="M1126.78549,381.13477c17.27302-34.27451,38.46061-66.57455,56.81058-100.31911l.69006.29797c-12.04725,36.46796-21.0859,74.02484-34.25134,110.07121-14.70861,35.5762-34.50603,68.92562-56.81227,100.31866l-.68678-.29819c7.61459-37.74513,18.38115-74.99806,34.24976-110.07053Z"/>
  <path class="st4" d="M1174.83289,511.31731c43.37214-35.79801,98.41402-63.49895,146.48436-93.38656l.42429.61582c-59.85725,47.41305-120.48908,99.76657-190.53719,131.42943l-.42768-.61537c13.73776-13.43392,29.04636-26.00693,44.05621-38.04332Z"/>
  <path class="st4" d="M1076.67435,365.96673c1.8565-24.47461,7.20272-48.62548,15.83222-71.65794l.7452.08418c8.20702,48.74198-6.11797,97.81809-16.62273,145.04267l-.74509-.08734s.49887-36.6762.50215-36.6762c.13277-12.19403-.79051-24.54365.28825-36.70536Z"/>
  <path class="st3" d="M967.82517,438.73281c-26.60342-25.51393-48.86854-55.409-63.02754-89.63491l.59921-.45051c19.1233,15.47832,35.99643,33.57179,50.02063,53.72628,11.69662,17.75742,26.27822,44.67531,37.92965,62.8368l-.59605.45028-24.92591-26.92794Z"/>
  <path class="st2" d="M884.55427,494.63819c3.81215,2.10701,6.88681,3.83601,7.83912,4.30909,9.23723,4.58878,17.90795,10.03504,25.6766,16.86166,2.3712,2.08367,21.7375,20.61452,19.67493,23.41485l-.44384.6026c-32.82411-7.07402-52.12662-32.00671-74.30021-54.64538,0,0,.44248-.60384.44311-.60459.88625-.97427,12.76529,5.44942,21.11029,10.06177Z"/>
  <polygon class="st1" points="862.99951 485.17988 863.00086 485.18101 862.99951 485.18304 862.99951 485.17988"/>
  <path class="st2" d="M1163.00485,452.69566c15.28476-14.69776,39.1692-34.02682,54.87001-48.76978l.5539.5052c-28.7067,38.87643-56.4612,82.01558-98.56645,107.74804l-.55074-.50554c11.72307-21.62048,26.4389-41.51485,43.69327-58.97793Z"/>
  <g>
    <path class="st2" d="M392.72991,810.43576v92.64632h-15.9081v-92.64632h-34.85559v-14.80177h85.84115v14.80177h-35.07746Z"/>
    <path class="st2" d="M542.3524,874.81282h-46.3961l-12.13624,28.26925h-16.79864l46.17423-107.44809h12.57999l46.02834,107.44809h-17.31534l-12.13624-28.26925ZM502.24477,860.01409h33.67023l-16.87159-39.14415-16.79864,39.14415Z"/>
    <path class="st2" d="M634.94705,903.08208v-107.44809h15.98409v92.64936h51.42931v14.79873h-67.4134Z"/>
    <path class="st2" d="M766.58554,903.08208v-107.44809h66.38001v14.72579h-50.39592v30.70987h45.87941v14.35802h-45.87941v32.85567h50.39592v14.79873h-66.38001Z"/>
    <path class="st2" d="M979.55475,903.08208l-61.19787-82.13919v82.13919h-15.24552v-107.44809h13.76534l61.19787,79.92044v-79.92044h15.24248v107.44809h-13.7623Z"/>
    <path class="st2" d="M1107.42442,810.43576v92.64632h-15.9081v-92.64632h-34.85559v-14.80177h85.84115v14.80177h-35.07746Z"/>
    <path class="st2" d="M1362.10605,874.81282h-46.3961l-12.13624,28.26925h-16.79864l46.17423-107.44809h12.57999l46.02834,107.44809h-17.31534l-12.13624-28.26925ZM1321.99842,860.01409h33.67023l-16.87159-39.14415-16.79864,39.14415Z"/>
    <path class="st2" d="M1473.46581,901.93623c-4.85997-1.80235-9.07862-4.41622-12.65293-7.84463-3.57735-3.42842-6.40093-7.65923-8.47379-12.69244-2.07286-5.03017-3.10928-10.77763-3.10928-17.23935v-68.52581h15.02364v67.48939c0,3.99374.55317,7.6106,1.66558,10.83842,1.10937,3.2339,2.72328,6.00885,4.84477,8.3279,2.12149,2.31905,4.73839,4.1062,7.84463,5.3645,3.10928,1.2583,6.63496,1.88745,10.58311,1.88745,3.99678,0,7.54678-.62915,10.65606-1.88745,3.10624-1.2583,5.72011-3.04546,7.84463-5.3645,2.11845-2.31905,3.72324-5.094,4.8083-8.3279,1.08506-3.22782,1.62911-6.84468,1.62911-10.83842v-67.48939h15.24248v68.52581c0,6.46172-1.03643,12.20918-3.10624,17.23935-2.07286,5.03321-4.91163,9.26402-8.51026,12.69244-3.60166,3.42842-7.84463,6.04228-12.72891,7.84463-4.88428,1.79931-10.16368,2.69897-15.83516,2.69897-5.62589,0-10.86578-.89966-15.72574-2.69897Z"/>
  </g>
</svg>