<?xml version="1.0" encoding="UTF-8"?>
<svg id="Layer_1" data-name="Layer 1" xmlns="http://www.w3.org/2000/svg" xmlns:xlink="http://www.w3.org/1999/xlink" viewBox="0 0 485 485">
  <defs>
    <style>
      .cls-1 {
        fill: none;
      }

      .cls-2 {
        fill: url(#linear-gradient);
      }

      .cls-3 {
        clip-path: url(#clippath);
      }

      .cls-4 {
        clip-path: url(#clippath-1);
      }

      .cls-5 {
        fill: url(#linear-gradient-3);
      }

      .cls-6 {
        fill: url(#linear-gradient-2);
      }
    </style>
    <clipPath id="clippath">
      <rect class="cls-1" x="295.35" y="125.88" width="127.68" height="178.57" transform="translate(-46.94 317.01) rotate(-45)"/>
    </clipPath>
    <linearGradient id="linear-gradient" x1="83.01" y1="236.14" x2="390.85" y2="249.16" gradientUnits="userSpaceOnUse">
      <stop offset=".04" stop-color="#f6ba02"/>
      <stop offset=".07" stop-color="#f2a90b"/>
      <stop offset=".12" stop-color="#ea7f24"/>
      <stop offset=".19" stop-color="#dc3c4b"/>
      <stop offset=".23" stop-color="#d30f67"/>
      <stop offset=".49" stop-color="#012197"/>
      <stop offset="1" stop-color="#eb155e"/>
    </linearGradient>
    <linearGradient id="linear-gradient-2" x1="80.17" y1="243.27" x2="403.73" y2="243.27" gradientUnits="userSpaceOnUse">
      <stop offset="0" stop-color="#f6ba02"/>
      <stop offset=".92" stop-color="#eb155e"/>
    </linearGradient>
    <clipPath id="clippath-1">
      <rect class="cls-1" x="61.5" y="182.44" width="126.6" height="176.81" transform="translate(-154.96 167.58) rotate(-45)"/>
    </clipPath>
    <linearGradient id="linear-gradient-3" x1="83.01" y1="236.14" x2="390.85" y2="249.16" gradientUnits="userSpaceOnUse">
      <stop offset="0" stop-color="#f6ba02"/>
      <stop offset=".05" stop-color="#f5b604"/>
      <stop offset=".09" stop-color="#f2ab0a"/>
      <stop offset=".13" stop-color="#ef9815"/>
      <stop offset=".16" stop-color="#e97d25"/>
      <stop offset=".2" stop-color="#e25b39"/>
      <stop offset=".24" stop-color="#da3251"/>
      <stop offset=".27" stop-color="#d30f67"/>
      <stop offset=".49" stop-color="#012197"/>
      <stop offset="1" stop-color="#eb155e"/>
    </linearGradient>
  </defs>
  <rect class="cls-1" width="485" height="485"/>
  <g>
    <g class="cls-3">
      <path class="cls-2" d="m141.77,333.45c-20.53,0-41.06-7.82-56.71-23.46-15.1-15.1-23.42-35.15-23.42-56.48s8.32-41.38,23.42-56.47c6.54-6.54,17.1-6.5,23.6,0,6.52,6.52,6.52,17.09,0,23.6-8.8,8.8-13.64,20.47-13.64,32.87s4.85,24.08,13.64,32.88c18.23,18.21,47.78,18.28,65.92.16l111.09-110.99c31.13-31.15,81.89-31.05,113.11.16,31.13,31.15,31.13,81.81,0,112.96-6.52,6.52-17.08,6.52-23.6,0-6.52-6.52-6.52-17.08,0-23.6,18.12-18.13,18.12-47.64,0-65.77-18.21-18.23-47.8-18.29-65.92-.15l-111.09,110.99c-15.53,15.53-35.96,23.29-56.4,23.29Z"/>
    </g>
    <path class="cls-6" d="m398.79,265.04c-6.56-6.49-17.12-6.43-23.6.1l-27.38,27.6c-.18.14-.28.35-.46.49-.43.36-.88.7-1.28,1.1-7.49,7.49-21.52,7.49-29.48-.41-.04-.04-.05-.09-.09-.13l-125.47-125.48c-.23-.23-.54-.3-.78-.51-19.93-19.19-53.19-19.51-73.92-1.57-1.35.96-2.71,2.02-3.52,2.84l-27.81,28.04c-6.5,6.55-6.45,17.11.09,23.61,3.26,3.23,7.5,4.83,11.75,4.83s8.58-1.65,11.84-4.93l27.38-27.6c.29-.22.45-.54.72-.77l.09.08c7.76-8.26,22.34-8.53,30.57-.32.08.08.18.1.26.17l125.02,125.03c.08.09.11.21.19.29,10.34,10.32,24.09,16,38.72,16s27.57-5.33,37.54-15.05c.78-.64,1.5-1.27,2-1.77.07-.07.09-.18.16-.25l27.54-27.76c6.5-6.55,6.45-17.11-.09-23.61Z"/>
    <g class="cls-4">
      <path class="cls-5" d="m141.77,333.45c-20.53,0-41.06-7.82-56.71-23.46-15.1-15.1-23.42-35.15-23.42-56.48s8.32-41.38,23.42-56.47c6.54-6.54,17.1-6.5,23.6,0,6.52,6.52,6.52,17.09,0,23.6-8.8,8.8-13.64,20.47-13.64,32.87s4.85,24.08,13.64,32.88c18.23,18.21,47.78,18.28,65.92.16l111.09-110.99c31.13-31.15,81.89-31.05,113.11.16,31.13,31.15,31.13,81.81,0,112.96-6.52,6.52-17.08,6.52-23.6,0-6.52-6.52-6.52-17.08,0-23.6,18.12-18.13,18.12-47.64,0-65.77-18.21-18.23-47.8-18.29-65.92-.15l-111.09,110.99c-15.53,15.53-35.96,23.29-56.4,23.29Z"/>
    </g>
  </g>
</svg>