<?xml version="1.0" encoding="UTF-8"?>
<svg id="Layer_1" xmlns="http://www.w3.org/2000/svg" xmlns:xlink="http://www.w3.org/1999/xlink" version="1.1" viewBox="0 0 1080 1080">
  <!-- Generator: Adobe Illustrator 29.0.0, SVG Export Plug-In . SVG Version: 2.1.0 Build 186)  -->
  <defs>
    <style>
      .st0 {
        fill: #2ce07c;
      }

      .st1 {
        fill: #33333d;
      }

      .st2 {
        fill: url(#linear-gradient);
        isolation: isolate;
        opacity: .5;
      }
    </style>
    <linearGradient id="linear-gradient" x1="527.3" y1="1254.7" x2="682.7" y2="1165.1" gradientTransform="translate(0 1656) scale(1 -1)" gradientUnits="userSpaceOnUse">
      <stop offset="0" stop-color="#231f20"/>
      <stop offset=".5" stop-color="#000" stop-opacity="0"/>
    </linearGradient>
  </defs>
  <g id="Layer_11">
    <g id="Layer_1-2">
      <path class="st1" d="M289,374.5c-18.1,0-35.1-4.6-50.4-13.6h0c-15.2-8.9-27.4-21.2-36.3-36.4-8.9-15.3-13.4-32.2-13.4-50.1s4.5-34.8,13.4-50.2c8.9-15.3,21.1-27.6,36.3-36.6,15.3-9,32.3-13.6,50.4-13.6s34.8,4.6,50.2,13.5c15.3,8.9,27.6,21.2,36.5,36.5,9,15.4,13.5,32.3,13.5,50.2s-4.6,34.8-13.6,50.2c-8.9,15.2-21.2,27.5-36.5,36.4-15.4,9-32.3,13.5-50.2,13.5h0v.2ZM289,207.9c-12.2,0-23.1,2.9-33.3,8.9-10.3,6.1-18.2,14-24.2,24.4-6,10.3-8.9,21.2-8.9,33.3s2.9,22.9,8.8,33.1c6,10.3,13.9,18.3,24.2,24.3h0c10.2,6,21.1,8.9,33.3,8.9s22.9-2.9,33.2-8.9c10.4-6.1,18.4-14,24.5-24.4,6-10.2,8.9-21,8.9-33.1s-2.9-22.9-8.9-33.2c-6.1-10.4-14.1-18.4-24.4-24.4s-21.2-8.9-33.2-8.9h0Z"/>
    </g>
  </g>
  <g>
    <path class="st0" d="M853.5,475.5c-26.1-44.3-61.2-79.3-105.5-105-41.4-24-86.2-36.9-134.5-38.5-3.4,0-6.8-.1-10.1-.1-50.1,0-95.4,11.6-135.8,34.7s-72.3,51.6-95.8,85.5l-2.4,3.2c-15.8,21.4-28.5,45.7-38.1,73-10.1,28.7-15.2,59.3-15.2,91.8,0,52.1,12.9,100.1,38.6,144.1,25.7,44,60.6,78.6,104.5,104,44,25.4,92,38.1,144.1,38.1s100.3-12.7,144.6-38.1c44.3-25.4,79.4-60.1,105.5-104,26.1-44,39.1-92,39.1-144.1s-13-100.3-39.1-144.6h0ZM734.3,694.8c-13.7,22.5-32.1,40.4-55.2,53.7-23.1,13.4-48.4,20-75.7,20s-52.4-6.5-75.2-19.5-40.9-30.9-54.2-53.7c-13.4-22.8-20-47.9-20-75.2s9.8-61.9,29.3-87.9c12.4-18.2,29-33.2,49.8-44.9,20.8-11.7,44.3-17.6,70.4-17.6s52.6,6.7,75.7,20c23.1,13.3,41.5,31.6,55.2,54.7,13.7,23.1,20.5,48.4,20.5,75.7s-6.8,52.2-20.5,74.7h0Z"/>
    <path class="st2" d="M564.5,336.8s75.5-20.5,165,24.1c77.3,57.2-128.5-34-74.1,117.7,0,0-103.2-40.9-172.7,54l81.8-195.8Z"/>
    <path class="st0" d="M369.3,455.4l164.8-239.6c1.7-2.5,4.6-4,7.7-4h137.5c7.5,0,12,8.5,7.7,14.7l-205.7,307.8-112-78.9Z"/>
  </g>
</svg>