<?xml version="1.0" encoding="UTF-8"?>
<svg xmlns="http://www.w3.org/2000/svg" version="1.1" viewBox="0 0 900 900">
  <defs>
    <style>
      .cls-1 {
        fill: #000;
        stroke-width: 0px;
      }

      .cls-2 {
        display: none;
      }
    </style>
  </defs>
  <g id="Layer_2" data-name="Layer 2" class="cls-2">
    <rect class="cls-1" width="900" height="900"/>
  </g>
  <g id="Layer_1" data-name="Layer 1">
    <g>
      <path class="cls-1" d="M422.52106,265.50814c7.15454.34357,16.52141.68652,28.10809,1.02199,11.57796.34357,22.99753.51131,34.24002.51131,16.01135,0,31.34304-.16773,45.99631-.51131,14.64454-.33547,25.04151-.51068,31.17343-.51068,27.59803,0,50.50702,3.92084,68.73818,11.75442,18.22243,7.84106,31.85309,18.48557,40.8845,31.94101,9.02267,13.46293,13.54336,28.53896,13.54336,45.22873,0,10.22112-2.04522,21.12877-6.13317,32.70735-4.08795,11.58668-11.16392,22.48685-21.20921,32.70797-10.05277,10.22112-23.76449,18.6533-41.14015,25.29778-17.37566,6.64323-39.35058,9.96547-65.926,9.96547h-49.06165v-10.22112h43.95108c24.18725,0,42.67282-3.83355,55.44923-11.49939s21.46486-17.88697,26.06412-30.66337c4.59926-12.77641,6.89888-26.99818,6.89888-42.67344,0-26.91027-6.38758-47.78401-19.16398-62.60439-12.77641-14.821-34.67276-22.2312-65.6716-22.2312-15.67464,0-25.89576,2.89885-30.66337,8.68783-4.7751,5.79771-7.15454,17.55212-7.15454,35.26325v253.48476c0,12.2651,1.02261,21.46486,3.06659,27.59679,2.04398,6.13317,6.04463,10.22112,12.00945,12.26635,5.95733,2.04398,14.73308,3.40954,26.31977,4.08795v10.22112c-7.84168-.67842-17.63132-1.10242-29.38636-1.27826-11.75379-.16711-23.59613-.25441-35.51828-.25441-13.28771,0-25.72865.0873-37.30661.25441-11.58668.17584-20.95355.59985-28.10809,1.27826v-10.22112c11.57796-.67842,20.35371-2.04398,26.31852-4.08795,5.95733-2.04522,9.96672-6.13317,12.01069-12.26635,2.04398-6.13193,3.06659-15.33169,3.06659-27.59679v-253.48476c0-12.60057-1.02261-21.88762-3.06659-27.85244-2.04398-5.95733-6.05336-10.04591-12.01069-12.26572-5.96482-2.21171-14.74057-3.48935-26.31852-3.83292v-10.22112ZM503.77875,446.93373c18.39827.68714,32.87571,1.4541,43.43978,2.29963,10.55659.85425,19.16523,1.62121,25.80846,2.29963,6.64448.68714,13.03206,1.53392,19.16523,2.55528,22.82169,3.75373,39.26328,10.65262,49.3173,20.6979,10.04529,10.05401,17.45548,25.64135,22.23057,46.76202l12.77641,52.12823c3.40205,14.99622,6.89888,25.80846,10.47678,32.4517,3.57789,6.64448,9.11122,9.79836,16.6087,9.45541,5.79022-.33547,10.64513-2.21233,14.56598-5.62187,3.91211-3.40205,8.08861-8.00131,12.52075-13.79902l7.66584,5.62187c-7.15454,10.56407-14.56473,18.65393-22.23057,24.27455-7.66584,5.62187-18.48682,8.4328-32.45294,8.4328-12.60805,0-23.68467-3.75248-33.21865-11.24249-9.54271-7.49125-16.69725-22.14328-21.46486-43.95108l-11.24249-51.10562c-3.06659-14.64579-6.56467-27.34238-10.47678-38.07481-3.92084-10.73243-9.37435-19.16398-16.3543-25.29716-6.98743-6.13193-17.29585-9.19851-30.91903-9.19851h-55.19357l-1.02261-8.68845Z"/>
      <path class="cls-1" d="M161.64544,269.08541c7.15454.34357,16.52141.68652,28.10809,1.02199,11.57796.34357,22.99753.51131,34.24002.51131,16.01135,0,31.34304-.16773,45.99631-.51131,14.64454-.33547,25.04151-.51068,31.17343-.51068,41.21996,0,72.05918,9.37435,92.50267,28.10809,20.44225,18.74122,30.66337,42.9291,30.66337,72.57048,0,12.2651-2.04522,25.12943-6.13317,38.58487-4.08795,13.46293-11.16392,25.89576-21.20921,37.30723-10.05277,11.41833-23.76449,20.6979-41.14015,27.85244-17.37566,7.15454-39.35058,10.73243-65.926,10.73243h-49.06165v-10.22112h43.95108c24.18725,0,42.67282-4.59926,55.44923-13.79902,12.77641-9.19851,21.46486-21.2884,26.06412-36.28524,4.59926-14.98811,6.89888-31.17406,6.89888-48.55034,0-32.3644-6.38758-56.55165-19.16398-72.56986-12.77641-16.01073-34.67276-24.02014-65.6716-24.02014-15.67464,0-25.89576,2.89885-30.66337,8.68783-4.7751,5.79771-7.15454,17.55212-7.15454,35.26325v253.48476c0,12.2651,1.27826,21.46486,3.83355,27.59679,2.55528,6.13317,7.5773,10.22112,15.07603,12.26635,7.49,2.04398,18.39827,3.40954,32.70735,4.08795v10.22112c-8.86305-.67842-20.10678-1.10242-33.72996-1.27826-13.63066-.16711-27.42968-.25441-41.3958-.25441-13.28771,0-25.72865.0873-37.30661.25441-11.58668.17584-20.95355.59985-28.10809,1.27826v-10.22112c11.57796-.67842,20.35371-2.04398,26.31852-4.08795,5.95733-2.04522,9.96672-6.13317,12.01069-12.26635,2.04398-6.13193,3.06659-15.33169,3.06659-27.59679v-253.48476c0-12.60057-1.02261-21.88762-3.06659-27.85244-2.04398-5.95733-6.05336-10.04591-12.01069-12.26572-5.96482-2.21171-14.74057-3.48935-26.31852-3.83292v-10.22112Z"/>
    </g>
  </g>
</svg>