<?xml version="1.0" encoding="UTF-8"?>
<svg id="Layer_1" xmlns="http://www.w3.org/2000/svg" xmlns:xlink="http://www.w3.org/1999/xlink" version="1.1" viewBox="0 0 1080 1080">
  <!-- Generator: Adobe Illustrator 29.0.0, SVG Export Plug-In . SVG Version: 2.1.0 Build 186)  -->
  <defs>
    <style>
      .st0 {
        fill: url(#linear-gradient1);
      }

      .st1 {
        fill: url(#linear-gradient);
      }
    </style>
    <linearGradient id="linear-gradient" x1="311.92395" y1="540.01284" x2="546.2285" y2="540.01284" gradientUnits="userSpaceOnUse">
      <stop offset="0" stop-color="#b8dc9e"/>
      <stop offset="1" stop-color="#8eab7a"/>
    </linearGradient>
    <linearGradient id="linear-gradient1" x1="644.53043" y1="869.37352" x2="644.53043" y2="210.62648" gradientUnits="userSpaceOnUse">
      <stop offset="0" stop-color="#6f8660"/>
      <stop offset="1" stop-color="#8fab7b"/>
    </linearGradient>
  </defs>
  <path class="st1" d="M541.51408,869.37351h-79.9176v-28.83748c0-4.56019,3.69676-8.25696,8.25696-8.25696h71.66064v37.09443ZM541.51408,771.77292h-71.66064c-4.56019,0-8.25696,3.69676-8.25696,8.25696v28.83748h79.9176v-37.09443ZM546.2285,713.38852h-79.6485c-2.35463,0-3.88643-1.52145-3.8916-2.12951v-22.20594c0-50.46147-21.08814-99.30316-57.85655-133.99122-35.47466-33.50815-55.29492-78.23054-55.80207-125.9208-1.01948-98.5709,82.01347-179.8961,185.09439-181.28559l-.4968-37.08926c-124.96368-4.03876-222.9185,99.79738-221.69202,218.76556.621,57.85396,24.56575,112.01297,67.43031,152.5048,29.3785,27.71732,46.22832,66.72392,46.22832,107.01651v22.60442c.1863,21.40899,18.56792,38.82547,40.98604,38.82547h79.6485v-37.09443Z"/>
  <path class="st0" d="M768.07435,405.29689c.29341,71.6413-37.60592,135.62253-97.4661,170.06354v-40.77134c0-2.48973,1.14744-4.81868,3.06809-6.40287,35.02948-28.89319,56.6064-72.08336,57.28831-119.73463,1.27037-88.79815-72.16222-160.73083-160.96945-160.73083h-11.9159v621.65275h-37.09449V234.51164h.00969v-23.88516h49.04294c108.06439,0,197.59434,86.60693,198.03691,194.67041ZM687.60952,832.97767h-51.77813v-383.2839c0-4.56016-3.69675-8.2569-8.2569-8.2569h-28.83749v427.93665h97.12963v-28.13874c0-4.56026-3.69685-8.25711-8.25711-8.25711Z"/>
</svg>