<?xml version="1.0" encoding="UTF-8"?>
<svg id="Layer_1" data-name="Layer 1" xmlns="http://www.w3.org/2000/svg" viewBox="0 0 94.38 94.38">
  <defs>
    <style>
      .cls-1 {
        fill: #c72026;
      }

      .cls-1, .cls-2 {
        stroke-width: 0px;
      }

      .cls-2 {
        fill: #062634;
      }
    </style>
  </defs>
  <path class="cls-1" d="M62.81,36.69l-24.71,41.32c2.88.85,5.93,1.31,9.09,1.31,5.91,0,11.45-1.6,16.2-4.39l.33-37.99c0-.5-.65-.68-.91-.26Z"/>
  <path class="cls-1" d="M50.05,48.41l-22,24.6c1.95,1.45,4.07,2.67,6.32,3.65l16.52-27.63c.33-.54-.42-1.09-.84-.62Z"/>
  <path class="cls-2" d="M47.19,15.06c-17.75,0-32.13,14.39-32.13,32.13,0,9.17,3.85,17.44,10.02,23.3l39.08-43.69c.07-.07.14-.14.21-.2.03-.02.05-.04.08-.06.35-.32.82-.51,1.33-.51,1.08,0,1.94.89,1.93,1.97l-.38,44.24c7.32-5.89,12.01-14.92,12.01-25.04,0-17.75-14.39-32.13-32.13-32.13Z"/>
</svg>