<?xml version="1.0" encoding="UTF-8"?>
<svg id="Layer_1" data-name="Layer 1" xmlns="http://www.w3.org/2000/svg" xmlns:xlink="http://www.w3.org/1999/xlink" viewBox="0 0 145.32 145.32">
  <defs>
    <style>
      .cls-1 {
        clip-path: url(#clippath);
      }

      .cls-2 {
        fill: none;
      }

      .cls-2, .cls-3, .cls-4, .cls-5 {
        stroke-width: 0px;
      }

      .cls-3 {
        fill: #1c5ba7;
      }

      .cls-4 {
        fill: #122649;
      }

      .cls-5 {
        fill: #1f4577;
      }
    </style>
    <clipPath id="clippath">
      <path class="cls-2" d="M28.95,13.41v118.5h44.79V13.41H28.95ZM36.96,49.63c-.74,2.91-1.14,5.96-1.14,9.1s.4,6.19,1.14,9.1v11.12l-.44.56c-3.53-6.12-5.57-13.21-5.57-20.78s2.03-14.66,5.57-20.78l.44.56v11.12ZM72.74,100.43s-.05,0-.08,0c-2.36,0-4.67-.21-6.93-.59v-4.94c2.24.43,4.56.66,6.93.66.03,0,.05,0,.08,0v4.87Z"/>
    </clipPath>
  </defs>
  <path class="cls-4" d="M71.74,129.91h-6.2c-19.07,0-34.59-15.52-34.59-34.59V15.41h6.2c19.07,0,34.59,15.52,34.59,34.59v79.91ZM35.96,20.42v74.9c0,16.31,13.27,29.58,29.58,29.58h1.19V50c0-16.31-13.27-29.58-29.58-29.58h-1.19Z"/>
  <path class="cls-5" d="M72.66,100.43c-23,0-41.71-18.71-41.71-41.71s18.71-41.71,41.71-41.71,41.71,18.71,41.71,41.71-18.71,41.71-41.71,41.71ZM72.66,21.88c-20.31,0-36.84,16.53-36.84,36.84s16.53,36.84,36.84,36.84,36.84-16.53,36.84-36.84-16.53-36.84-36.84-36.84Z"/>
  <g class="cls-1">
    <path class="cls-4" d="M71.74,129.91h-6.2c-19.07,0-34.59-15.52-34.59-34.59V15.41h6.2c19.07,0,34.59,15.52,34.59,34.59v79.91ZM35.96,20.42v74.9c0,16.31,13.27,29.58,29.58,29.58h1.19V50c0-16.31-13.27-29.58-29.58-29.58h-1.19Z"/>
  </g>
  <path class="cls-3" d="M51.35,79.12c-11.25,0-20.39-9.15-20.39-20.39s9.15-20.39,20.39-20.39,20.39,9.15,20.39,20.39c0,.27,0,.54-.02.81-.43,10.98-9.38,19.59-20.38,19.59ZM51.35,43.34c-8.49,0-15.39,6.9-15.39,15.39s6.9,15.39,15.39,15.39,15.05-6.49,15.38-14.78h0c0-.2.01-.41.01-.61,0-8.49-6.9-15.39-15.39-15.39Z"/>
</svg>