<?xml version="1.0" encoding="UTF-8"?>
<svg id="Layer_1" data-name="Layer 1" xmlns="http://www.w3.org/2000/svg" viewBox="0 0 89.4 89.4">
  <defs>
    <style>
      .cls-1 {
        fill: #000;
      }

      .cls-1, .cls-2, .cls-3 {
        stroke-width: 0px;
      }

      .cls-2 {
        fill: #f9bd38;
      }

      .cls-3 {
        fill: #fff;
      }
    </style>
  </defs>
  <rect class="cls-3" width="89.4" height="89.4" rx="7.16" ry="7.16"/>
  <g>
    <path class="cls-1" d="M35.81,74.12h-11.28c2.5,0,2.34-12.98,2.34-20.79v-14.83c0-7.82.16-20.79-2.34-20.79h21.11c31.75,0,25.79,32.96-3.06,37.72l-.32-.48c23.93-7.25,23.53-36.51,3.47-36.51h-12.33v35.22c0,7.82-.08,20.47,2.42,20.47Z"/>
    <path class="cls-2" d="M52.05,74.48c-2.22,0-3.99-1.77-3.99-3.99s1.77-4.08,3.99-4.08,3.99,1.86,3.99,4.08-1.77,3.99-3.99,3.99Z"/>
  </g>
</svg>