<?xml version="1.0" encoding="UTF-8"?>
<svg id="Layer_1" data-name="Layer 1" xmlns="http://www.w3.org/2000/svg" version="1.1" viewBox="0 0 971.5314 1001.85709">
  <defs>
    <style>
      .cls-1 {
        fill: #005335;
        stroke-width: 0px;
      }
    </style>
  </defs>
  <g id="Icon">
    <g>
      <path class="cls-1" d="M935.12897,444.68426c-16.94225-162.5432-99.72354-283.15059-243.89929-359.22219-103.16147-54.43257-212.61433-64.07801-325.33724-33.29728-98.29834,26.75503-177.89236,81.2716-239.62062,161.78863-67.51707,88.14909-97.45977,188.03998-91.83995,298.83455,2.76744,55.01975,15.7679,107.4395,37.9931,157.76239,31.5358,71.29088,79.17528,129.917,141.15656,177.0528.92242.67112,1.76098,1.3417,2.60045,2.09677-2.43256,8.21928-3.77481,16.94225-3.77481,26.00001,0,50.40692,40.92934,91.33636,91.33627,91.33636,50.32289,0,91.33627-40.92934,91.33627-91.33627,0-50.32298-41.01338-91.25187-91.33627-91.25187-25.66513,0-48.89787,10.6513-65.50415,27.76144-.25084-.08395-.50278-.33579-.75453-.50323-30.27759-23.65185-57.11598-50.49087-80.09679-81.2716-63.74317-85.29779-88.56882-181.66617-78.42075-286.58961,8.13534-84.79402,41.26513-160.0266,98.13044-223.85326,99.30371-111.29726,224.02079-156.42023,371.1317-136.03951,93.60093,13,173.02706,56.27751,236.85318,125.97529,91.25241,99.4716,125.89144,217.05917,102.65869,349.40882-22.64593,128.49135-95.1942,223.18223-208.2529,287.17624-47.72352,27.00692-99.64058,41.09733-153.90526,46.88441-16.43857,1.76098-17.77973.08395-17.94762-16.01974-.08404-19.96144.41874-77.74863-.25193-97.71008-.33579-10.48395,4.02565-13.83902,13.75408-16.77436,27.00737-8.05184,55.10415-14.92943,79.84595-27.92934,21.63948-11.49041,40.17482-29.69041,58.45931-46.63257,7.75137-7.1939,8.8694-16.89978,5.41499-25.00125,22.96144-34.5817,51.57729-99.83202,51.57729-210.50271v-182.3506c0-8.79107-7.15152-15.94249-15.94394-15.94249h-76.86044v1.03353c-4.19046-11.64599-15.2385-20.04394-28.31086-20.04394-16.64739,0-30.19464,13.54471-30.19464,30.19455,0,16.64839,13.54724,30.19355,30.19464,30.19355,13.07218,0,24.12021-8.39786,28.31086-20.0434v1.03408h70.43484v175.92454c0,11.94392-.38614,23.26073-1.04033,34.09532h-25.2578c-38.80703,0-70.3776,31.57265-70.3776,70.38068,0,34.18189-27.81116,61.99142-61.99251,61.99142h-106.01476c-34.18135,0-61.98943-27.80962-61.98943-61.99142,0-38.80803-31.57365-70.38068-70.38068-70.38068h-18.80049c-.65419-10.81204-1.03507-22.13809-1.03507-34.09532v-175.92454h70.00487c4.4587,11.11668,15.30008,19.00932,27.99137,19.00932,16.64739,0,30.19464-13.54516,30.19464-30.19355,0-16.64993-13.54724-30.19455-30.19464-30.19455-12.69129,0-23.53358,7.89264-27.99228,19.01032h-76.4283c-8.7926,0-15.94394,7.15143-15.94394,15.94249v182.3506c0,111.49847,29.04582,176.90636,52.09112,211.28431-2.84116,7.63673-1.7599,16.7001,4.1403,24.3035,5.28386,6.96099,11.91014,13.08395,18.53625,18.87113,33.88341,29.27113,72.71598,48.56145,117.08434,55.1871,14.76144,2.09677,19.62565,8.38718,18.36745,22.81337-1.17326,13.83902-.25193,65.67159-.25193,79.59402v23.73579c0,7.88395-.16789,15.85185,0,23.73579.25193,18.95453,7.21382,26.75462,26.33688,26.2513,20.80001-.58663,41.85176-2.09677,62.48387-5.28341,98.80093-15.43265,185.02015-58.03949,254.13121-129.83359,96.11644-99.72344,141.91-219.82716,127.40049-358.80237l.00036.00027ZM303.74345,806.6738c13.92306,0,26.92243,4.1096,37.74226,11.23902,18.78709,12.32888,31.28387,33.63257,31.28387,57.7871,0,20.54862-8.9739,38.91652-23.14871,51.58128-12.16099,10.90323-28.26467,17.52934-45.87741,17.52934-38.1619,0-69.11016-30.94862-69.11016-69.11061,0-38.0775,30.94808-69.02621,69.11016-69.02621v.00009ZM445.23471,713.99583c-39.2524-8.13579-70.78819-29.52297-98.88388-57.11652-6.65689-6.54578-14.80038-8.8617-22.23335-7.45498-3.6837-5.66275-7.53748-12.1963-11.39107-19.78386-13.44274-26.47199-28.99058-69.96086-33.92851-134.32915h18.21477c34.18135,0,61.99251,27.80962,61.99251,61.99196,0,38.80749,31.57057,70.37969,70.3776,70.37969h106.01476c38.80703,0,70.38068-31.57211,70.38068-70.37969,0-34.18234,27.80808-61.99196,61.98943-61.99196h24.69761c-6.00796,78.3532-27.95134,126.97251-45.55901,154.16272-7.19752-.96598-15.10864,1.20197-21.51559,6.65028-3.85776,3.27112-7.29677,7.21337-11.07067,10.5679-48.64594,43.4454-104.58757,60.63903-169.08544,47.30369l.00018-.00009Z"/>
      <path class="cls-1" d="M482.20343,548.20994c-64.49516,0-116.95811-52.46295-116.95811-116.95811s52.46295-116.95811,116.95811-116.95811c64.48574,0,116.94851,52.46295,116.94851,116.95811s-52.46295,116.95811-116.94851,116.95811ZM482.20343,333.75829c-53.75557,0-97.49364,43.73808-97.49364,97.49355s43.73808,97.49355,97.49364,97.49355,97.48404-43.73808,97.48404-97.49355-43.72866-97.49355-97.48404-97.49355Z"/>
      <g>
        <rect class="cls-1" x="435.39544" y="421.51961" width="93.61596" height="19.46446"/>
        <rect class="cls-1" x="472.47119" y="384.44395" width="19.46446" height="93.61587"/>
      </g>
      <rect class="cls-1" x="256.89345" y="864.16478" width="93.61596" height="19.46446"/>
    </g>
  </g>
</svg>