<?xml version="1.0" encoding="UTF-8"?>
<svg id="Layer_1" data-name="Layer 1" xmlns="http://www.w3.org/2000/svg" viewBox="0 0 129.66 113">
  <defs>
    <style>
      .cls-1, .cls-2 {
        stroke-width: 0px;
      }

      .cls-2 {
        fill: #cee202;
      }
    </style>
  </defs>
  <path class="cls-1" d="M45.31,63.72h-4.09v-9.13c0-11.74,9.55-21.29,21.29-21.29h10.75v4.09h-10.75c-9.49,0-17.21,7.72-17.21,17.21v9.13Z"/>
  <polygon class="cls-1" points="87.83 79.54 57.04 79.54 57.04 75.45 83.74 75.45 83.74 49.12 87.83 49.12 87.83 79.54"/>
  <polygon class="cls-2" points="49.38 86.49 43.27 80.38 37.15 86.49 34.27 83.61 40.38 77.5 34.27 71.38 37.15 68.5 43.27 74.61 49.38 68.5 52.26 71.38 46.15 77.5 52.26 83.61 49.38 86.49"/>
  <path class="cls-2" d="M93.3,41.83c-1.73,2.14-4.37,3.51-7.33,3.51-5.19,0-9.42-4.23-9.42-9.42s4.23-9.42,9.42-9.42,9.42,4.23,9.42,9.42c0,2.23-.78,4.29-2.09,5.91M85.97,30.6c-2.94,0-5.33,2.39-5.33,5.33s2.39,5.33,5.33,5.33,5.33-2.39,5.33-5.33-2.39-5.33-5.33-5.33Z"/>
</svg>