<?xml version="1.0" encoding="UTF-8"?>
<svg id="Layer_5" xmlns="http://www.w3.org/2000/svg" xmlns:xlink="http://www.w3.org/1999/xlink" viewBox="0 0 1200.96 1200.96">
  <defs>
    <style>
      .cls-1 {
        fill: url(#linear-gradient);
      }

      .cls-2 {
        fill: #f07;
      }

      .cls-3 {
        fill: #fff;
      }
    </style>
    <linearGradient id="linear-gradient" x1="249.16" y1="-9918.42" x2="708.94" y2="-9921.08" gradientTransform="translate(0 -9181.03) scale(1 -1)" gradientUnits="userSpaceOnUse">
      <stop offset="0" stop-color="#f07"/>
      <stop offset=".29" stop-color="#cc0a71"/>
      <stop offset=".48" stop-color="#a3116c"/>
      <stop offset=".77" stop-color="#731b66"/>
      <stop offset=".85" stop-color="#482361"/>
      <stop offset="1" stop-color="#1d2b5c"/>
    </linearGradient>
  </defs>
  <path class="cls-2" d="M366.78,927.43c-91.41-118.46-84.67-273.68-34.56-373.36,7.25-14.41,15.67-28.58,25.25-42.19,1.01-1.44-.15-3.4-1.86-3.11l-6.6,1.11c-3.8.65-7.63,1.14-11.48,1.43-6.87.51-13.81.39-20.64-.63-11.35-1.7-22.46-5.96-31.35-13.53-5.42-4.61-9.87-10.39-13.06-16.83-1.62-3.29-2.92-6.74-3.85-10.3-.61-2.34-.14-6.07-1.53-8.08-3.02-4.34-8.84,9.08-9.71,10.92-2.97,6.22-5.7,12.55-8.24,18.97-5.51,13.93-10.13,28.22-14.06,42.7-8.4,30.91-13.83,62.78-16.03,94.79-1.87,27.2-1.52,54.88,3.34,81.76,14.16,78.18,48.7,147.77,92.63,193.41,13.27,13.79,27.41,25.4,42.09,34.4,7.14,4.37,14.82-4.74,9.66-11.43Z"/>
  <path class="cls-1" d="M369.11,569.25c-17.97,30.25-28.62,64.96-33.43,100.99-8.82,65.99-2.5,136.59,29.46,192,27.35,47.42,68.11,81.7,121.91,86.44,60.79,5.35,122.81-16.67,172.63-50.84,20.75-14.23,46.4-32.53,60.89-55.85,2.45-3.96-2.29-8.39-5.95-5.58-66.3,50.96-165.27,44.27-233.18-.36-43.13-28.34-74.38-72.58-87.25-123.44-9.48-37.47-10.87-77.68-4.25-116.29,2.4-14.02,9.42-42.03,17.49-62.56,1.74-4.43-3.71-8.11-7.05-4.79-12.23,12.16-22.6,25.71-31.26,40.3Z"/>
  <g>
    <path d="M598,1014.18c-14.77,0-29.8-.74-44.67-2.2-3.13-.3-7.49-.89-11.96-1.6-1.72-.27-3.01-1.71-3.1-3.45-.09-1.74,1.04-3.3,2.72-3.76,9.27-2.5,20.29-4.89,27.59-6.46l.34-.07c11.15-2.42,22.69-4.92,31.77-7.67,34.62-10.44,67.26-26.29,94.42-45.84,43.97-31.65,80.38-73.49,105.3-121.01,27.66-52.74,40.33-111.26,36.64-169.25-3.65-57.3-23.16-113.05-56.42-161.22-30.54-44.06-76.51-78.05-129.43-95.72l-7.48-2.5-.08,8.06c-.16,15.71-3.5,23.25-7.37,31.99-5.06,11.41-10.78,24.33-9.67,55.81.65,18.62-6.72,30.25-20.74,32.75-1.79.32-3.7.49-5.66.49-25.04,0-59.8-25.55-74.92-72.91l-2.1-6.57-6.01,3.14c-34.46,18-83.71,27.57-146.39,28.43h-.65s-.63.17-.63.17c-5.95,1.49-11.44,2.55-16.79,3.23-3.85.49-7.69.73-11.42.73-15.08,0-28.6-4.04-38.06-11.36-7.04-5.44-11.25-13.2-12.5-23.06-2.08-16.27,4.48-36.6,17.12-53.07,9.25-12.03,16.41-23.06,22.73-32.8,12.12-18.68,21.68-33.43,39.6-46.54,35.71-26.14,78.15-44.09,122.73-51.91,2.14-.37,4.33-.73,6.51-1.06l.52-.08.5-.17c5.94-2.08,11.21-4.69,15.64-7.77,60.99-42.58,116.29-64.17,164.36-64.17,17.74,0,34.73,2.96,50.52,8.8,1.39.51,2.33,1.81,2.4,3.29.07,1.48-.75,2.86-2.08,3.5-3.97,1.91-7.78,3.67-11.47,5.37l-.27.12c-21.42,9.87-38.33,17.66-37.73,34.99.12,3.39.9,7.31,2.4,11.99l1.07,3.34,3.38.63c56.73,10.66,104.54,30.44,138.25,57.21,40.56,32.21,71.79,65.87,95.46,102.9,19.09,29.87,34.25,62.55,45.05,97.12,18.83,60.22,23.96,124.79,14.85,186.73-16.35,111.11-88.84,188.44-146.77,233.74-32.24,25.21-69.1,44.69-109.54,57.88-40.26,13.13-83.3,19.79-127.93,19.79Z"/>
    <path class="cls-3" d="M680.43,190.47c17.36,0,33.79,2.85,49.24,8.57-4.04,1.94-7.92,3.73-11.69,5.47-21.76,10.03-40.56,18.69-39.87,38.47.13,3.74.97,7.98,2.57,12.98l1.74,5.44,5.54,1.04c56.14,10.55,103.39,30.08,136.63,56.48,40.24,31.95,71.2,65.32,94.65,102,18.92,29.6,33.93,61.99,44.64,96.24,18.66,59.69,23.76,123.7,14.72,185.1-16.18,109.9-87.99,186.48-145.39,231.37-64.23,50.23-146.48,76.88-235.2,76.88-14.61,0-29.41-.72-44.31-2.19-3.01-.29-7.3-.86-11.75-1.57,9-2.43,19.56-4.72,27.41-6.42,11.35-2.46,23.08-5,32.39-7.82,35-10.56,68.03-26.6,95.51-46.38,44.43-31.98,81.23-74.27,106.42-122.29,27.97-53.34,40.78-112.54,37.05-171.2-3.69-57.97-23.42-114.35-57.07-163.08-31-44.72-77.63-79.21-131.3-97.12l-12.28-4.1-.13,13.12c-.15,14.95-3.2,21.83-7.05,30.53-5.22,11.77-11.12,25.1-9.99,57.43.41,11.71-2.34,26.25-17.7,28.99-1.58.29-3.26.43-5.02.43-22.01,0-56.15-22.57-71.4-70.34l-3.43-10.75-9.9,5.17c-33.94,17.73-82.64,27.16-144.73,28.01l-1.08.02-1.05.26c-5.81,1.45-11.16,2.48-16.36,3.15-3.73.47-7.39.7-10.96.7-14.21,0-26.89-3.69-35.8-10.59-6.24-4.82-9.97-11.75-11.1-20.61-1.96-15.33,4.32-34.63,16.39-50.36,9.33-12.13,16.54-23.24,22.89-33.04,11.91-18.36,21.32-32.86,38.68-45.57,35.26-25.8,77.17-43.53,121.19-51.26,2.14-.38,4.29-.73,6.43-1.05l.86-.13.82-.29c6.26-2.19,11.81-4.95,16.53-8.22,60.57-42.28,114.9-63.51,162.26-63.51M680.43,183.09v7.38s0-7.38,0-7.38c-48.84,0-104.85,21.81-166.49,64.84-4.14,2.87-9.11,5.33-14.74,7.3l-.17.06-.18.03c-2.18.33-4.4.69-6.6,1.08-45.14,7.92-88.11,26.1-124.28,52.57-18.46,13.51-28.19,28.51-40.52,47.5-6.28,9.68-13.4,20.66-22.55,32.55-13.22,17.22-20.06,38.59-17.86,55.79,1.39,10.87,6.07,19.45,13.91,25.51,10.1,7.82,24.42,12.13,40.31,12.13,3.89,0,7.89-.26,11.88-.76,5.5-.71,11.13-1.79,17.22-3.31l.22-.06h.22c63.26-.87,113.07-10.58,148.05-28.85l2.12-1.11.76,2.39c9.28,29.07,24.33,46.7,35.32,56.38,13.79,12.13,29.5,19.09,43.11,19.09,2.19,0,4.32-.18,6.32-.55,9.26-1.65,16.22-6.93,20.14-15.26,2.7-5.75,3.92-12.9,3.63-21.25-1.08-30.64,4.23-42.61,9.36-54.19,4.04-9.11,7.52-16.98,7.69-33.45l.03-2.99,2.67.89c52.17,17.41,97.47,50.91,127.57,94.32,32.88,47.61,52.16,102.72,55.77,159.35,3.65,57.31-8.88,115.16-36.22,167.3-24.66,47.01-60.69,88.42-104.19,119.73-26.83,19.31-59.1,34.98-93.33,45.3-8.94,2.7-20.4,5.19-31.48,7.6l-.35.08c-7.33,1.58-18.41,3.98-27.77,6.51-3.36.91-5.63,4.04-5.44,7.51.19,3.47,2.77,6.35,6.21,6.89,4.55.72,9,1.32,12.19,1.63,14.99,1.47,30.14,2.22,45.02,2.22,45.02,0,88.44-6.72,129.07-19.97,40.85-13.33,78.09-33,110.67-58.48,58.46-45.71,131.62-123.79,148.15-236.11,9.19-62.49,4.01-127.62-14.98-188.37-10.91-34.89-26.2-67.86-45.47-98.01-23.89-37.38-55.39-71.34-96.27-103.81-34.18-27.14-82.54-47.18-139.86-57.95l-1.21-.23-.4-1.24c-1.39-4.35-2.12-7.94-2.22-10.99-.49-14.19,12.53-20.89,35.59-31.51l.12-.06c3.75-1.73,7.62-3.51,11.67-5.46,2.67-1.28,4.31-4.04,4.17-6.99s-2.03-5.54-4.81-6.57c-16.19-5.99-33.62-9.02-51.8-9.03h0Z"/>
  </g>
  <path class="cls-3" d="M363.7,382.38c-3.46-7.93,10.74-21.02,31.67-29.28,20.96-8.26,42.11-3.25,56-2.61,9.01.44-22.57,23.06-43.53,31.27-20.94,8.26-40.73,8.52-44.14.62Z"/>
  <path class="cls-3" d="M388.39,447.48c29.08-31.45,66.43-55.49,107.95-67.26,3.41,7.46,5.8,15.49,6.92,24.06.66,5.09,1.53,9.99,2.57,14.72-23.2,13.07-59.84,24.89-117.44,28.48Z"/>
  <path class="cls-3" d="M830.85,431.07c-27.37-11.03-28.65,16.24-46.28,4.42-14.7-9.89-31.85-48.05-60.47-60.37-41.65-17.92-36.15-43.51-24.55-52.75,23.23-18.49,95.96,18.51,118.73,48.36,31.34,41.03,49.15,75.09,12.57,60.34Z"/>
</svg>