<?xml version="1.0" encoding="UTF-8"?>
<svg id="Layer_1" data-name="Layer 1" xmlns="http://www.w3.org/2000/svg" viewBox="0 0 373.21 373.21">
  <defs>
    <style>
      .cls-1 {
        fill: none;
      }

      .cls-1, .cls-2, .cls-3 {
        stroke-width: 0px;
      }

      .cls-2 {
        fill: #111b38;
      }

      .cls-3 {
        fill: #f0682d;
      }
    </style>
  </defs>
  <g>
    <path class="cls-3" d="M98.76,68.56h-30.2v30.2h-10.79v-40.99h40.99v10.79ZM274.45,68.56h30.2v30.2s10.79,0,10.79,0v-30.2s0-10.79,0-10.79h-10.79s-30.2,0-30.2,0v10.79ZM274.45,315.44h40.99v-40.99h-10.79v30.2h-30.2v10.79ZM98.76,304.65h-30.2v-30.2s-10.79,0-10.79,0v30.2s0,10.79,0,10.79h10.79s30.2,0,30.2,0v-10.79Z"/>
    <circle class="cls-3" cx="186.6" cy="186.61" r="19.59"/>
    <path class="cls-2" d="M186.6,128.32c32.14,0,58.28,26.15,58.28,58.28s-26.15,58.28-58.28,58.28-58.28-26.15-58.28-58.28,26.15-58.28,58.28-58.28M186.6,116.21c-38.88,0-70.4,31.52-70.4,70.4s31.52,70.4,70.4,70.4,70.4-31.52,70.4-70.4-31.52-70.4-70.4-70.4h0Z"/>
    <path class="cls-2" d="M181.31,69.06c-1.87.08-3.74.21-5.59.38-.04,0-.08,0-.13.01-1.83.17-3.64.38-5.44.63-.06,0-.11.02-.17.02-1.8.25-3.58.55-5.35.88-.05,0-.1.02-.14.03-1.79.34-3.56.72-5.31,1.14-.02,0-.03,0-.05.01-10.7,2.56-20.84,6.59-30.18,11.85-.03.02-.05.03-.08.05-1.52.86-3.03,1.75-4.51,2.68-.05.03-.09.06-.14.09-1.47.92-2.92,1.88-4.35,2.86-.04.03-.09.06-.13.09-1.43.99-2.85,2.02-4.23,3.07-.02.02-.04.03-.07.05-8.48,6.45-16.06,14.03-22.52,22.52-.02.02-.03.04-.05.07-1.05,1.39-2.08,2.8-3.07,4.23-.03.04-.06.09-.09.13-.99,1.43-1.94,2.88-2.86,4.35-.03.05-.06.09-.09.14-.93,1.48-1.82,2.98-2.68,4.51-.02.03-.03.06-.05.08-5.26,9.34-9.29,19.47-11.85,30.18,0,.02,0,.04-.01.06-.42,1.75-.8,3.52-1.14,5.31-.01.05-.02.1-.03.16-.33,1.77-.63,3.55-.88,5.35,0,.06-.02.12-.02.17-.25,1.8-.46,3.61-.63,5.44,0,.04,0,.09-.01.13-.17,1.85-.3,3.71-.38,5.58-.08,1.76-.12,3.53-.12,5.3s.05,3.54.12,5.3c.08,1.87.21,3.73.38,5.58,0,.04,0,.09.01.13.17,1.83.38,3.64.63,5.44,0,.06.02.12.02.17.25,1.8.55,3.58.88,5.35,0,.05.02.1.03.16.34,1.78.72,3.55,1.14,5.31,0,.02,0,.04.01.06,2.56,10.7,6.59,20.83,11.85,30.18.02.03.03.06.05.08.86,1.52,1.75,3.03,2.68,4.51.03.05.06.09.09.14.92,1.47,1.88,2.92,2.86,4.35.03.04.06.09.09.13.99,1.43,2.02,2.85,3.07,4.23.02.02.03.04.05.07,6.45,8.48,14.04,16.06,22.52,22.52.02.02.04.03.06.05,1.39,1.05,2.8,2.08,4.24,3.07.04.03.09.06.13.09,1.43.99,2.88,1.94,4.35,2.86.05.03.09.06.14.09,1.48.93,2.98,1.82,4.51,2.68.03.02.05.03.08.05,9.34,5.26,19.48,9.29,30.18,11.85.02,0,.03,0,.05.01,1.76.42,3.53.8,5.31,1.14.05,0,.1.02.14.03,1.77.33,3.56.63,5.35.88.06,0,.11.02.17.02,1.8.25,3.62.46,5.44.63.04,0,.08,0,.13.01,1.85.17,3.71.3,5.59.38h0c1.76.08,3.52.12,5.29.12h0s0,0,0,0c1.78,0,3.54-.05,5.3-.12h0c1.87-.08,3.74-.21,5.59-.38.04,0,.08,0,.13-.01,1.83-.17,3.64-.38,5.44-.63.06,0,.11-.02.17-.02,1.8-.25,3.58-.55,5.35-.88.05,0,.1-.02.15-.03,1.79-.34,3.56-.72,5.31-1.14.02,0,.04,0,.05-.01,10.7-2.56,20.83-6.58,30.17-11.85.03-.02.06-.03.09-.05,1.52-.86,3.02-1.75,4.5-2.68.05-.03.09-.06.14-.09,1.47-.92,2.92-1.88,4.35-2.86.04-.03.09-.06.13-.09,1.43-.99,2.84-2.01,4.23-3.07.02-.02.05-.04.07-.05,8.48-6.45,16.06-14.03,22.51-22.51.02-.02.04-.05.06-.07,1.05-1.39,2.07-2.8,3.07-4.23.03-.04.06-.09.09-.13.98-1.43,1.94-2.88,2.86-4.35.03-.05.06-.09.09-.14.93-1.48,1.82-2.98,2.68-4.51.02-.03.03-.06.05-.08,5.26-9.34,9.29-19.47,11.85-30.18,0-.02,0-.04.01-.06.42-1.75.8-3.53,1.14-5.31,0-.05.02-.1.03-.15.33-1.77.63-3.55.88-5.35,0-.06.02-.11.02-.17.25-1.8.46-3.62.63-5.44,0-.04,0-.08.01-.13.17-1.85.3-3.71.38-5.59h0c.08-1.76.12-3.52.12-5.3s-.05-3.54-.12-5.3h0c-.08-1.87-.21-3.74-.38-5.59,0-.04,0-.08-.01-.13-.17-1.83-.38-3.64-.63-5.44,0-.06-.02-.11-.02-.17-.25-1.8-.55-3.58-.88-5.35,0-.05-.02-.1-.03-.15-.34-1.78-.72-3.55-1.14-5.31,0-.02,0-.04-.01-.06-2.56-10.7-6.59-20.83-11.85-30.18-.02-.03-.03-.06-.05-.08-.86-1.52-1.75-3.03-2.68-4.51-.03-.05-.06-.09-.09-.14-.92-1.47-1.88-2.92-2.86-4.35-.03-.04-.06-.09-.09-.13-.99-1.43-2.01-2.84-3.07-4.23-.02-.02-.04-.05-.06-.07-6.45-8.48-14.03-16.06-22.51-22.51-.02-.02-.05-.04-.07-.06-1.39-1.05-2.8-2.08-4.23-3.07-.04-.03-.09-.06-.13-.09-1.43-.98-2.88-1.94-4.35-2.86-.05-.03-.09-.06-.14-.09-1.48-.92-2.98-1.82-4.5-2.68-.03-.02-.06-.03-.09-.05-9.34-5.26-19.47-9.29-30.17-11.85-.02,0-.04,0-.05-.01-1.76-.42-3.53-.8-5.31-1.14-.05,0-.1-.02-.15-.03-1.77-.33-3.55-.63-5.35-.88-.06,0-.11-.02-.17-.02-1.8-.25-3.62-.46-5.44-.63-.04,0-.08,0-.13-.01-1.85-.17-3.71-.3-5.59-.38h0c-1.76-.08-3.52-.12-5.3-.12s-3.54.05-5.3.12h0ZM191.9,102.54v-21.31c53.97,2.68,97.4,46.11,100.08,100.08h-21.31c.11,1.75.18,3.52.18,5.3s-.07,3.55-.18,5.3h21.31c-2.68,53.97-46.11,97.4-100.08,100.08v-21.31c-1.75.11-3.52.18-5.3.18s-3.55-.07-5.3-.18v21.31c-53.97-2.68-97.4-46.11-100.08-100.08h21.31c-.11-1.75-.18-3.52-.18-5.3s.07-3.55.18-5.3h-21.31c2.68-53.97,46.11-97.4,100.08-100.08v21.31c1.75-.11,3.52-.18,5.3-.18s3.55.07,5.3.18Z"/>
  </g>
  <rect class="cls-1" y="0" width="373.21" height="373.21"/>
</svg>