<?xml version="1.0" encoding="UTF-8"?>
<svg id="Layer_1" data-name="Layer 1" xmlns="http://www.w3.org/2000/svg" viewBox="0 0 150 150">
  <defs>
    <style>
      .cls-1 {
        fill: #000;
      }

      .cls-1, .cls-2 {
        stroke-width: 0px;
      }

      .cls-2 {
        fill: #b27114;
      }
    </style>
  </defs>
  <g>
    <path class="cls-1" d="M32.23,41.97v30.61h-6.65v-30.61h-13.02v-5.93h32.7v5.93h-13.02Z"/>
    <path class="cls-1" d="M70.91,61.97h-20.88c.99,3.57,4.07,5.71,8.3,5.71,2.86,0,5.66-1.21,8.13-3.41l3.9,4.18c-3.3,2.97-7.58,4.78-11.98,4.78-8.63,0-14.89-5.55-14.89-13.85s5.93-13.57,14.51-13.57c9.01,0,13.52,5.93,13.52,12.03,0,.71-.17,2.36-.6,4.12ZM50.08,56.53h14.95c-.44-2.91-2.91-5.22-7.09-5.22s-6.92,1.87-7.86,5.22Z"/>
    <path class="cls-1" d="M77.61,59.5c0-8.02,6.37-13.68,14.89-13.68,4.18,0,8.3,1.59,11.49,4.62l-4.4,4.12c-1.76-1.92-4.34-3.19-7.09-3.19-5.11,0-8.57,3.3-8.57,8.13s3.41,8.08,8.63,8.08c2.53,0,5.05-.99,7.31-3.3l4.29,4.18c-3.3,3.02-7.31,4.78-11.65,4.78-8.57,0-14.89-5.66-14.89-13.74Z"/>
    <path class="cls-1" d="M137.94,56.69v15.88h-6.15v-15.44c0-3.63-2.42-5.77-6.32-5.77-3.57,0-7.25,2.09-7.25,5.99v15.22h-6.15v-38.19h6.15v13.3c2.03-1.43,4.84-1.87,7.97-1.87,6.76,0,11.76,4.29,11.76,10.88Z"/>
  </g>
  <g>
    <path class="cls-2" d="M37.83,84.5c-.21.35,0,.42.21.14,3.11-4.24,7.41-8.4,11.65-8.4,2.68,0,4.02,1.84,4.02,4.24,0,3.39-1.55,7.77-4.09,11.65-4.17,6.14-10.52,10.87-15.74,10.87-3.46,0-4.38-2.26-3.95-4.59.07-.21,0-.28-.14-.07l-6.92,12.14c-1.83,3.32-3.11,5.08-5.08,5.08-1.06,0-1.91.14-2.54.49-1.55,1.2-2.26,3.04-3.25,3.04.99-1.06,3.67-4.87,6.35-9.53,1.48-2.4,11.22-19.55,12.64-21.88,3.11-5.37,3.95-7.34,3.95-8.26,0-.71-.35-1.13-1.06-1.13-1.76,0-3.74,1.98-5.72,4.73,1.2-3.18,4.59-6.64,8.33-6.64,2.12,0,3.18,1.27,3.18,2.89,0,1.41-.92,3.53-1.83,5.22ZM47.99,77.73c-2.33,0-6.21,2.82-12.14,10.45-1.62,2.4-3.67,6.35-4.8,8.33-1.34,3.46-.35,5.44,2.12,5.44,3.04,0,6.42-2.89,11.72-11.37,2.96-4.8,4.73-8.75,4.73-11.22,0-1.2-.63-1.62-1.62-1.62Z"/>
    <path class="cls-2" d="M67.13,99.33c0-1.84,1.06-4.09,1.83-5.44.14-.28,0-.28-.14-.14-3.53,4.73-8.47,9.18-12.99,9.18-1.83,0-3.95-1.06-3.95-3.67,0-2.33,1.41-5.22,4.24-9.39,4.09-6.07,5.93-9.04,5.93-10.59,0-.56-.35-1.06-.92-1.06-1.34,0-3.53,1.48-5.72,5.08,1.2-3.81,4.73-6.92,7.98-6.92,1.98,0,3.39,1.06,3.39,2.82-.07,2.89-1.98,6.21-6.14,12.21-2.82,4.02-4.59,7.27-4.59,8.75,0,1.06.63,1.48,1.48,1.48,2.33,0,7.55-3.6,11.79-9.67,1.62-2.26,4.09-5.58,6-9.04.92-1.69,1.48-3.04,1.48-3.95,0-.49-.28-.78-.71-.78-.57,0-1.2.28-1.98.99.78-1.34,2.4-2.68,4.09-2.68,1.83,0,2.96.99,2.96,2.75,0,2.4-1.41,5.51-4.38,9.95-3.04,4.59-5.65,8.82-5.65,10.94,0,.85.42,1.62,1.62,1.62,1.41,0,3.81-1.55,6.14-4.24,2.12-2.47,3.32-4.24,4.66-6.71-.64,2.33-2.05,4.8-4.17,7.2-2.54,2.89-5.29,5.01-8.4,5.01-2.61,0-3.88-1.48-3.88-3.74Z"/>
    <path class="cls-2" d="M98.47,64.52c0-.78-.35-1.2-1.06-1.2-1.77,0-3.74,1.91-5.72,4.73,1.2-3.11,4.52-6.64,8.33-6.64,2.19,0,3.32,1.34,3.39,2.97,0,2.19-1.13,4.45-2.61,6.71-2.68,4.24-6,9.18-8.26,12.92-2.54,4.17-5.15,8.75-6.35,11.58-.71,1.48-1.2,3.04-1.2,4.24s.57,2.05,1.98,2.05c1.55,0,3.88-1.06,6.57-4.24,2.05-2.4,3.39-4.38,4.66-6.78-.64,2.33-2.19,4.8-4.17,7.2-2.75,3.25-5.44,5.01-8.54,5.01s-4.52-1.91-4.52-4.31c0-5.01,4.94-12.99,9.04-19.27,2.97-4.73,8.47-12.35,8.47-14.97Z"/>
    <path class="cls-2" d="M122.4,79.21c0,2.26-1.69,3.67-3.67,4.02.35-.92.42-1.76.42-2.61,0-1.91-.71-3.6-2.19-3.6-1.62,0-2.89,2.19-2.89,4.59-.07,2.4.28,5.79.14,8.47-.21,3.39-1.41,6.35-3.39,8.68-2.4,2.75-6.14,4.38-10.45,4.38-3.81,0-6.99-1.77-6.99-5.51,0-4.45,3.88-7.06,6.35-7.06,1.98-2.05,5.08-5.29,7.84-7.98,3.46-3.46,7.91-6.71,11.29-6.71,1.98,0,3.53,1.34,3.53,3.32ZM102.35,91.91c-2.47.14-5.79,3.25-5.79,7.13,0,1.84,1.13,3.53,3.81,3.53,2.33,0,3.88-1.13,5.15-2.89,1.91-2.61,3.04-6.42,3.95-10.94.99-5.15,2.4-8.47,4.87-10.52.21-.21.14-.28-.07-.21-1.69.78-4.8,3.6-6.28,5.08-2.61,2.54-5.08,5.22-7.41,7.55.56.07,1.48.56,1.76,1.27Z"/>
    <path class="cls-2" d="M132.78,98.27c1.48-1.55,4.31-5.44,3.88-7.84.21.42.42.78.42,1.48,0,1.98-1.2,4.8-3.67,7.2-2.75,2.54-5.79,3.88-8.97,3.88-3.74,0-6.49-1.76-6.49-6,0-3.6,1.98-9.18,6.28-13.77,4.87-5.22,10.52-7.27,14.47-7.27,2.75,0,4.52,1.41,4.52,3.6,0,4.66-4.8,8.33-11.01,8.33-2.47,0-3.95-.99-4.45-1.76-3.6,5.15-5.51,10.02-5.51,12.85,0,1.91.92,3.25,3.11,3.25s4.94-1.48,7.41-3.95ZM139.13,76.67c-2.47,0-5.15,2.4-7.27,4.52-1.41,1.34-2.82,3.25-3.81,4.59.28.49,1.84,1.34,3.46,1.41,4.94.07,9.18-5.86,9.18-8.9,0-.92-.49-1.62-1.55-1.62Z"/>
  </g>
</svg>