<?xml version="1.0" encoding="UTF-8"?>
<svg id="Layer_1" xmlns="http://www.w3.org/2000/svg" xmlns:xlink="http://www.w3.org/1999/xlink" version="1.1" viewBox="0 0 1184.66663 1080">
  <!-- Generator: Adobe Illustrator 29.0.0, SVG Export Plug-In . SVG Version: 2.1.0 Build 186)  -->
  <defs>
    <style>
      .st0 {
        fill: url(#linear-gradient1);
      }

      .st1 {
        fill: #97d2fb;
      }

      .st2 {
        fill: url(#linear-gradient);
      }

      .st3 {
        fill: #4a667a;
      }
    </style>
    <linearGradient id="linear-gradient" x1="517.29843" y1="691.42474" x2="517.29843" y2="578.10205" gradientUnits="userSpaceOnUse">
      <stop offset="0" stop-color="#231f20" stop-opacity="0"/>
      <stop offset="1" stop-color="#231f20"/>
    </linearGradient>
    <linearGradient id="linear-gradient1" x1="667.8985" y1="691.42474" x2="667.8985" y2="578.10205" gradientUnits="userSpaceOnUse">
      <stop offset="0" stop-color="#231f20" stop-opacity="0"/>
      <stop offset="1" stop-color="#231f20"/>
    </linearGradient>
  </defs>
  <g id="Layer_11">
    <g>
      <path class="st3" d="M667.43854,881.21741c-15.92664,0-28.83466-12.90985-28.83466-28.83466v-280.49945c0-15.92474,12.90802-28.83466,28.83466-28.83466s28.83466,12.90985,28.83466,28.83466v280.49945c0,15.92474-12.90802,28.83466-28.83466,28.83466Z"/>
      <path class="st3" d="M517.22437,881.21741c-15.92664,0-28.83466-12.90985-28.83466-28.83466v-280.49945c0-15.92474,12.90802-28.83466,28.83466-28.83466s28.83466,12.90985,28.83466,28.83466v280.49945c0,15.92474-12.90802,28.83466-28.83466,28.83466Z"/>
      <polygon class="st2" points="488.38971 588.8515 488.38971 691.42474 546.20715 691.42474 546.20715 578.10205 488.38971 588.8515"/>
      <polygon class="st0" points="638.98981 588.8515 638.98981 691.42474 696.80719 691.42474 696.80719 578.10205 638.98981 588.8515"/>
      <path class="st3" d="M758.46661,901.55554c-110.23993-17.46222-222.03046-17.46222-332.27039,0l-9.01834-56.95966c116.22458-18.40839,234.08994-18.40839,350.30704,0l-9.01831,56.95966Z"/>
      <path class="st3" d="M592.33331,596.5448c-58.52155,0-117.04309-4.60303-175.1554-13.80719l9.01834-56.95966c110.2399,17.46222,222.03043,17.46222,332.27042,0l9.01831,56.95966c-58.10852,9.20416-116.63013,13.80719-175.15161,13.80719h-.00006Z"/>
      <path class="st1" d="M818.74908,795.44562l-37.31982-43.96533c65.63257-55.71692,103.27533-136.99457,103.27533-222.99536,0-161.2149-131.15631-292.37119-292.37122-292.37119s-292.37119,131.15628-292.37119,292.37119c0,84.13104,36.29108,164.24481,99.57336,219.7984l-38.04819,43.33832c-75.75098-66.50177-119.19443-162.4126-119.19443-263.13672,0-193.01373,157.02863-350.04047,350.04044-350.04047s350.04047,157.02673,350.04047,350.04047c0,102.96179-45.05786,200.26556-123.62476,266.96069Z"/>
    </g>
  </g>
</svg>