<?xml version="1.0" encoding="UTF-8"?>
<svg id="Layer_1" data-name="Layer 1" xmlns="http://www.w3.org/2000/svg" viewBox="0 0 698.1 703.51">
  <defs>
    <style>
      .cls-1 {
        fill: #527853;
        stroke-width: 0px;
      }
    </style>
  </defs>
  <path class="cls-1" d="M593.84,270.17h-158.11c-29.63,0-56.34,17.84-67.67,45.22-19.58,47.29-49.79,120.25-66.9,161.53l-87.28-205.34h-14.12l99.71,236.8c26.91-63.01,53.83-126.03,80.74-189.04,9.38-21.96,30.96-36.21,54.83-36.21h63.13v226.65h14.65v-226.65h80.25c9.56,0,17.91,6.68,19.79,16.06,3.42,17,5.25,34.57,5.25,52.57,0,149.1-121.3,270.39-270.39,270.39-136.12,0-249.01-101.12-267.64-232.17h-13.78c19.55,144.67,148.35,255.16,300.38,245.23,137.6-8.99,250.02-117.81,263.69-255.03,2.87-28.85,1.3-56.9-4.02-83.62-3.07-15.41-16.8-26.39-32.52-26.39Z"/>
  <path class="cls-1" d="M235.65,376.83l-6.5-15.43-47.2,115.51-82.79-194.79c-5.02-11.82-4.86-25.15.21-36.94,41.43-96.24,137.1-163.82,248.35-163.82,103.99,0,194.36,59.06,239.57,145.36h15.42c-46.33-94.11-143.2-159.04-254.99-159.04-118.31,0-219.85,72.74-262.5,175.81-5.22,12.61-5.31,26.77-.01,39.34l95.05,225.53,55.39-131.54Z"/>
  <polygon class="cls-1" points="251.29 339.69 279.97 271.57 265.85 271.57 244.52 323.77 251.29 339.69"/>
</svg>