<svg width="461" height="318" viewBox="0 0 461 318" fill="none" xmlns="http://www.w3.org/2000/svg">
<path d="M144.598 317.125L229.526 235.914L308.456 317.125H460.941L335.374 192.049C297.501 154.181 251.332 176.297 230.518 194.5L195.565 158.563L230.518 122.625C251.28 140.829 297.501 162.944 335.374 125.077L460.941 0H308.456L229.526 81.2112L144.598 0H0.824219L154.197 158.563L0.824219 317.125H144.598ZM314.455 213.017L389.263 287.551H320.976L251.228 215.833C260.044 208.583 289.519 188.085 314.455 213.017ZM320.976 29.574H389.263L314.455 104.109C289.519 129.041 260.044 108.542 251.228 101.292L320.976 29.574ZM71.1981 29.574H132.912L208.868 102.388L174.855 137.334L71.146 29.5219L71.1981 29.574ZM174.907 179.739L208.92 214.686L132.964 287.499H71.2503L174.959 179.687L174.907 179.739Z" fill="#017CFF"/>
</svg>
